<?xml version="1.0" encoding="UTF-8" standalone="no"?>
<!-- Created with Inkscape (http://www.inkscape.org/) -->

<svg
   xmlns:dc="http://purl.org/dc/elements/1.1/"
   xmlns:cc="http://creativecommons.org/ns#"
   xmlns:rdf="http://www.w3.org/1999/02/22-rdf-syntax-ns#"
   xmlns:svg="http://www.w3.org/2000/svg"
   xmlns="http://www.w3.org/2000/svg"
   xmlns:sodipodi="http://sodipodi.sourceforge.net/DTD/sodipodi-0.dtd"
   xmlns:inkscape="http://www.inkscape.org/namespaces/inkscape"
   width="725"
   height="315"
   id="svg3055"
   version="1.1"
   inkscape:version="0.48.4 r9939"
   sodipodi:docname="Ex3_20_Step1.svg">
  <defs
     id="defs3057">
    <marker
       refX="0"
       refY="0"
       orient="auto"
       id="Arrow1Mend"
       style="overflow:visible">
      <path
         inkscape:connector-curvature="0"
         d="M 0,0 5,-5 -12.5,0 5,5 0,0 z"
         transform="matrix(-0.4,0,0,-0.4,-4,0)"
         id="path3809"
         style="fill:#383838;fill-rule:evenodd;stroke:#383838;stroke-width:1pt;marker-start:none" />
    </marker>
    <marker
       refX="0"
       refY="0"
       orient="auto"
       id="marker3075"
       style="overflow:visible">
      <path
         inkscape:connector-curvature="0"
         d="M 0,0 5,-5 -12.5,0 5,5 0,0 z"
         transform="matrix(-0.4,0,0,-0.4,-4,0)"
         id="path3077"
         style="fill:#383838;fill-rule:evenodd;stroke:#383838;stroke-width:1pt;marker-start:none" />
    </marker>
    <marker
       refX="0"
       refY="0"
       orient="auto"
       id="Arrow1Mend-6"
       style="overflow:visible">
      <path
         inkscape:connector-curvature="0"
         d="M 0,0 5,-5 -12.5,0 5,5 0,0 z"
         transform="matrix(-0.4,0,0,-0.4,-4,0)"
         id="path3809-6-2"
         style="fill:#383838;fill-rule:evenodd;stroke:#383838;stroke-width:1pt;marker-start:none" />
    </marker>
    <marker
       refX="0"
       refY="0"
       orient="auto"
       id="marker3081"
       style="overflow:visible">
      <path
         inkscape:connector-curvature="0"
         d="M 0,0 5,-5 -12.5,0 5,5 0,0 z"
         transform="matrix(-0.4,0,0,-0.4,-4,0)"
         id="path3083"
         style="fill:#383838;fill-rule:evenodd;stroke:#383838;stroke-width:1pt;marker-start:none" />
    </marker>
    <marker
       refX="0"
       refY="0"
       orient="auto"
       id="marker3085"
       style="overflow:visible">
      <path
         inkscape:connector-curvature="0"
         d="M 0,0 5,-5 -12.5,0 5,5 0,0 z"
         transform="matrix(-0.4,0,0,-0.4,-4,0)"
         id="path3087"
         style="fill:#383838;fill-rule:evenodd;stroke:#383838;stroke-width:1pt;marker-start:none" />
    </marker>
    <marker
       refX="0"
       refY="0"
       orient="auto"
       id="marker3089"
       style="overflow:visible">
      <path
         inkscape:connector-curvature="0"
         d="M 0,0 5,-5 -12.5,0 5,5 0,0 z"
         transform="matrix(-0.4,0,0,-0.4,-4,0)"
         id="path3091"
         style="fill:#383838;fill-rule:evenodd;stroke:#383838;stroke-width:1pt;marker-start:none" />
    </marker>
    <marker
       refX="0"
       refY="0"
       orient="auto"
       id="marker3093"
       style="overflow:visible">
      <path
         inkscape:connector-curvature="0"
         d="M 0,0 5,-5 -12.5,0 5,5 0,0 z"
         transform="matrix(-0.4,0,0,-0.4,-4,0)"
         id="path3095"
         style="fill:#383838;fill-rule:evenodd;stroke:#383838;stroke-width:1pt;marker-start:none" />
    </marker>
    <marker
       refX="0"
       refY="0"
       orient="auto"
       id="Arrow1Mend-5"
       style="overflow:visible">
      <path
         inkscape:connector-curvature="0"
         d="M 0,0 5,-5 -12.5,0 5,5 0,0 z"
         transform="matrix(-0.4,0,0,-0.4,-4,0)"
         id="path3809-2"
         style="fill:#383838;fill-rule:evenodd;stroke:#383838;stroke-width:1pt;marker-start:none" />
    </marker>
    <marker
       refX="0"
       refY="0"
       orient="auto"
       id="Arrow1Mend-6-9"
       style="overflow:visible">
      <path
         inkscape:connector-curvature="0"
         d="M 0,0 5,-5 -12.5,0 5,5 0,0 z"
         transform="matrix(-0.4,0,0,-0.4,-4,0)"
         id="path3809-6-2-8"
         style="fill:#383838;fill-rule:evenodd;stroke:#383838;stroke-width:1pt;marker-start:none" />
    </marker>
    <marker
       refX="0"
       refY="0"
       orient="auto"
       id="Arrow1Mend-1"
       style="overflow:visible">
      <path
         inkscape:connector-curvature="0"
         d="M 0,0 5,-5 -12.5,0 5,5 0,0 z"
         transform="matrix(-0.4,0,0,-0.4,-4,0)"
         id="path3809-4"
         style="fill:#383838;fill-rule:evenodd;stroke:#383838;stroke-width:1pt;marker-start:none" />
    </marker>
    <marker
       refX="0"
       refY="0"
       orient="auto"
       id="marker5763"
       style="overflow:visible">
      <path
         inkscape:connector-curvature="0"
         d="M 0,0 5,-5 -12.5,0 5,5 0,0 z"
         transform="matrix(-0.4,0,0,-0.4,-4,0)"
         id="path5765"
         style="fill:#383838;fill-rule:evenodd;stroke:#383838;stroke-width:1pt;marker-start:none" />
    </marker>
    <marker
       refX="0"
       refY="0"
       orient="auto"
       id="Arrow1Mend-6-4"
       style="overflow:visible">
      <path
         inkscape:connector-curvature="0"
         d="M 0,0 5,-5 -12.5,0 5,5 0,0 z"
         transform="matrix(-0.4,0,0,-0.4,-4,0)"
         id="path3809-6-2-9"
         style="fill:#383838;fill-rule:evenodd;stroke:#383838;stroke-width:1pt;marker-start:none" />
    </marker>
    <marker
       refX="0"
       refY="0"
       orient="auto"
       id="marker5860"
       style="overflow:visible">
      <path
         inkscape:connector-curvature="0"
         d="M 0,0 5,-5 -12.5,0 5,5 0,0 z"
         transform="matrix(-0.4,0,0,-0.4,-4,0)"
         id="path5862"
         style="fill:#383838;fill-rule:evenodd;stroke:#383838;stroke-width:1pt;marker-start:none" />
    </marker>
    <marker
       refX="0"
       refY="0"
       orient="auto"
       id="Arrow1Mend-62"
       style="overflow:visible">
      <path
         inkscape:connector-curvature="0"
         d="M 0,0 5,-5 -12.5,0 5,5 0,0 z"
         transform="matrix(-0.4,0,0,-0.4,-4,0)"
         id="path3809-7"
         style="fill:#383838;fill-rule:evenodd;stroke:#383838;stroke-width:1pt;marker-start:none" />
    </marker>
    <marker
       refX="0"
       refY="0"
       orient="auto"
       id="Arrow1Mend-6-6"
       style="overflow:visible">
      <path
         inkscape:connector-curvature="0"
         d="M 0,0 5,-5 -12.5,0 5,5 0,0 z"
         transform="matrix(-0.4,0,0,-0.4,-4,0)"
         id="path3809-6-2-5"
         style="fill:#383838;fill-rule:evenodd;stroke:#383838;stroke-width:1pt;marker-start:none" />
    </marker>
    <marker
       refX="0"
       refY="0"
       orient="auto"
       id="Arrow1Mend-0"
       style="overflow:visible">
      <path
         inkscape:connector-curvature="0"
         d="M 0,0 5,-5 -12.5,0 5,5 0,0 z"
         transform="matrix(-0.4,0,0,-0.4,-4,0)"
         id="path3809-0"
         style="fill:#383838;fill-rule:evenodd;stroke:#383838;stroke-width:1pt;marker-start:none" />
    </marker>
    <marker
       refX="0"
       refY="0"
       orient="auto"
       id="marker6078"
       style="overflow:visible">
      <path
         inkscape:connector-curvature="0"
         d="M 0,0 5,-5 -12.5,0 5,5 0,0 z"
         transform="matrix(-0.4,0,0,-0.4,-4,0)"
         id="path6080"
         style="fill:#383838;fill-rule:evenodd;stroke:#383838;stroke-width:1pt;marker-start:none" />
    </marker>
    <marker
       refX="0"
       refY="0"
       orient="auto"
       id="Arrow1Mend-9"
       style="overflow:visible">
      <path
         inkscape:connector-curvature="0"
         d="M 0,0 5,-5 -12.5,0 5,5 0,0 z"
         transform="matrix(-0.4,0,0,-0.4,-4,0)"
         id="path3809-02"
         style="fill:#383838;fill-rule:evenodd;stroke:#383838;stroke-width:1pt;marker-start:none" />
    </marker>
    <marker
       refX="0"
       refY="0"
       orient="auto"
       id="marker6203"
       style="overflow:visible">
      <path
         inkscape:connector-curvature="0"
         d="M 0,0 5,-5 -12.5,0 5,5 0,0 z"
         transform="matrix(-0.4,0,0,-0.4,-4,0)"
         id="path6205"
         style="fill:#383838;fill-rule:evenodd;stroke:#383838;stroke-width:1pt;marker-start:none" />
    </marker>
    <marker
       refX="0"
       refY="0"
       orient="auto"
       id="Arrow1Mend-6-7"
       style="overflow:visible">
      <path
         inkscape:connector-curvature="0"
         d="M 0,0 5,-5 -12.5,0 5,5 0,0 z"
         transform="matrix(-0.4,0,0,-0.4,-4,0)"
         id="path3809-6-2-1"
         style="fill:#383838;fill-rule:evenodd;stroke:#383838;stroke-width:1pt;marker-start:none" />
    </marker>
    <marker
       refX="0"
       refY="0"
       orient="auto"
       id="Arrow1Mend-6-69"
       style="overflow:visible">
      <path
         inkscape:connector-curvature="0"
         d="M 0,0 5,-5 -12.5,0 5,5 0,0 z"
         transform="matrix(-0.4,0,0,-0.4,-4,0)"
         id="path3809-6-2-0"
         style="fill:#383838;fill-rule:evenodd;stroke:#383838;stroke-width:1pt;marker-start:none" />
    </marker>
    <marker
       refX="0"
       refY="0"
       orient="auto"
       id="Arrow1Mend-8"
       style="overflow:visible">
      <path
         inkscape:connector-curvature="0"
         d="M 0,0 5,-5 -12.5,0 5,5 0,0 z"
         transform="matrix(-0.4,0,0,-0.4,-4,0)"
         id="path3809-3"
         style="fill:#383838;fill-rule:evenodd;stroke:#383838;stroke-width:1pt;marker-start:none" />
    </marker>
    <marker
       refX="0"
       refY="0"
       orient="auto"
       id="marker6316"
       style="overflow:visible">
      <path
         inkscape:connector-curvature="0"
         d="M 0,0 5,-5 -12.5,0 5,5 0,0 z"
         transform="matrix(-0.4,0,0,-0.4,-4,0)"
         id="path6318"
         style="fill:#383838;fill-rule:evenodd;stroke:#383838;stroke-width:1pt;marker-start:none" />
    </marker>
    <marker
       refX="0"
       refY="0"
       orient="auto"
       id="Arrow1Mend-4"
       style="overflow:visible">
      <path
         inkscape:connector-curvature="0"
         d="M 0,0 5,-5 -12.5,0 5,5 0,0 z"
         transform="matrix(-0.4,0,0,-0.4,-4,0)"
         id="path3809-5"
         style="fill:#383838;fill-rule:evenodd;stroke:#383838;stroke-width:1pt;marker-start:none" />
    </marker>
    <marker
       refX="0"
       refY="0"
       orient="auto"
       id="Arrow1Mend-6-97"
       style="overflow:visible">
      <path
         inkscape:connector-curvature="0"
         d="M 0,0 5,-5 -12.5,0 5,5 0,0 z"
         transform="matrix(-0.4,0,0,-0.4,-4,0)"
         id="path3809-6-2-11"
         style="fill:#383838;fill-rule:evenodd;stroke:#383838;stroke-width:1pt;marker-start:none" />
    </marker>
    <marker
       refX="0"
       refY="0"
       orient="auto"
       id="marker5333"
       style="overflow:visible">
      <path
         inkscape:connector-curvature="0"
         d="M 0,0 5,-5 -12.5,0 5,5 0,0 z"
         transform="matrix(-0.4,0,0,-0.4,-4,0)"
         id="path5335"
         style="fill:#383838;fill-rule:evenodd;stroke:#383838;stroke-width:1pt;marker-start:none" />
    </marker>
    <marker
       refX="0"
       refY="0"
       orient="auto"
       id="Arrow1Mend-6-64"
       style="overflow:visible">
      <path
         inkscape:connector-curvature="0"
         d="M 0,0 5,-5 -12.5,0 5,5 0,0 z"
         transform="matrix(-0.4,0,0,-0.4,-4,0)"
         id="path3809-6-2-2"
         style="fill:#383838;fill-rule:evenodd;stroke:#383838;stroke-width:1pt;marker-start:none" />
    </marker>
    <marker
       refX="0"
       refY="0"
       orient="auto"
       id="Arrow1Mend-93"
       style="overflow:visible">
      <path
         inkscape:connector-curvature="0"
         d="M 0,0 5,-5 -12.5,0 5,5 0,0 z"
         transform="matrix(-0.4,0,0,-0.4,-4,0)"
         id="path3809-31"
         style="fill:#383838;fill-rule:evenodd;stroke:#383838;stroke-width:1pt;marker-start:none" />
    </marker>
    <marker
       refX="0"
       refY="0"
       orient="auto"
       id="Arrow1Mend-6-93"
       style="overflow:visible">
      <path
         inkscape:connector-curvature="0"
         d="M 0,0 5,-5 -12.5,0 5,5 0,0 z"
         transform="matrix(-0.4,0,0,-0.4,-4,0)"
         id="path3809-6-2-6"
         style="fill:#383838;fill-rule:evenodd;stroke:#383838;stroke-width:1pt;marker-start:none" />
    </marker>
    <marker
       refX="0"
       refY="0"
       orient="auto"
       id="Arrow1Mend-66"
       style="overflow:visible">
      <path
         inkscape:connector-curvature="0"
         d="M 0,0 5,-5 -12.5,0 5,5 0,0 z"
         transform="matrix(-0.4,0,0,-0.4,-4,0)"
         id="path3809-59"
         style="fill:#383838;fill-rule:evenodd;stroke:#383838;stroke-width:1pt;marker-start:none" />
    </marker>
    <marker
       refX="0"
       refY="0"
       orient="auto"
       id="marker5498"
       style="overflow:visible">
      <path
         inkscape:connector-curvature="0"
         d="M 0,0 5,-5 -12.5,0 5,5 0,0 z"
         transform="matrix(-0.4,0,0,-0.4,-4,0)"
         id="path5500"
         style="fill:#383838;fill-rule:evenodd;stroke:#383838;stroke-width:1pt;marker-start:none" />
    </marker>
    <marker
       refX="0"
       refY="0"
       orient="auto"
       id="Arrow1Mend-6-74"
       style="overflow:visible">
      <path
         inkscape:connector-curvature="0"
         d="M 0,0 5,-5 -12.5,0 5,5 0,0 z"
         transform="matrix(-0.4,0,0,-0.4,-4,0)"
         id="path3809-6-2-97"
         style="fill:#383838;fill-rule:evenodd;stroke:#383838;stroke-width:1pt;marker-start:none" />
    </marker>
    <marker
       refX="0"
       refY="0"
       orient="auto"
       id="Arrow1Mend-7"
       style="overflow:visible">
      <path
         inkscape:connector-curvature="0"
         d="M 0,0 5,-5 -12.5,0 5,5 0,0 z"
         transform="matrix(-0.4,0,0,-0.4,-4,0)"
         id="path3809-1"
         style="fill:#383838;fill-rule:evenodd;stroke:#383838;stroke-width:1pt;marker-start:none" />
    </marker>
    <marker
       refX="0"
       refY="0"
       orient="auto"
       id="Arrow1Mend-6-8"
       style="overflow:visible">
      <path
         inkscape:connector-curvature="0"
         d="M 0,0 5,-5 -12.5,0 5,5 0,0 z"
         transform="matrix(-0.4,0,0,-0.4,-4,0)"
         id="path3809-6-2-3"
         style="fill:#383838;fill-rule:evenodd;stroke:#383838;stroke-width:1pt;marker-start:none" />
    </marker>
    <marker
       refX="0"
       refY="0"
       orient="auto"
       id="Arrow1Mend-91"
       style="overflow:visible">
      <path
         inkscape:connector-curvature="0"
         d="M 0,0 5,-5 -12.5,0 5,5 0,0 z"
         transform="matrix(-0.4,0,0,-0.4,-4,0)"
         id="path3809-51"
         style="fill:#383838;fill-rule:evenodd;stroke:#383838;stroke-width:1pt;marker-start:none" />
    </marker>
    <marker
       refX="0"
       refY="0"
       orient="auto"
       id="Arrow1Mend-50"
       style="overflow:visible">
      <path
         inkscape:connector-curvature="0"
         d="M 0,0 5,-5 -12.5,0 5,5 0,0 z"
         transform="matrix(-0.4,0,0,-0.4,-4,0)"
         id="path3809-22"
         style="fill:#383838;fill-rule:evenodd;stroke:#383838;stroke-width:1pt;marker-start:none" />
    </marker>
    <marker
       refX="0"
       refY="0"
       orient="auto"
       id="Arrow1Mend-48"
       style="overflow:visible">
      <path
         inkscape:connector-curvature="0"
         d="M 0,0 5,-5 -12.5,0 5,5 0,0 z"
         transform="matrix(-0.4,0,0,-0.4,-4,0)"
         id="path3809-03"
         style="fill:#383838;fill-rule:evenodd;stroke:#383838;stroke-width:1pt;marker-start:none" />
    </marker>
  </defs>
  <sodipodi:namedview
     id="base"
     pagecolor="#ffffff"
     bordercolor="#666666"
     borderopacity="1.0"
     inkscape:pageopacity="0.0"
     inkscape:pageshadow="2"
     inkscape:zoom="1"
     inkscape:cx="380.53852"
     inkscape:cy="358.0341"
     inkscape:document-units="px"
     inkscape:current-layer="layer1"
     showgrid="false"
     inkscape:window-width="1301"
     inkscape:window-height="744"
     inkscape:window-x="1985"
     inkscape:window-y="336"
     inkscape:window-maximized="1" />
  <metadata
     id="metadata3060">
    <rdf:RDF>
      <cc:Work
         rdf:about="">
        <dc:format>image/svg+xml</dc:format>
        <dc:type
           rdf:resource="http://purl.org/dc/dcmitype/StillImage" />
        <dc:title></dc:title>
      </cc:Work>
    </rdf:RDF>
  </metadata>
  <g
     inkscape:label="Layer 1"
     inkscape:groupmode="layer"
     id="layer1"
     transform="translate(0,-737.36218)">
    <g
       id="g5772"
       transform="translate(0,37.451545)">
      <text
         sodipodi:linespacing="125%"
         id="text3433"
         y="1180.7664"
         x="200.24123"
         style="font-size:40px;font-style:normal;font-weight:normal;line-height:125%;letter-spacing:0px;word-spacing:0px;fill:#000000;fill-opacity:1;stroke:none;font-family:Sans"
         xml:space="preserve"><tspan
           y="1180.7664"
           x="200.24123"
           id="tspan3435"
           sodipodi:role="line" /><tspan
           y="1230.7664"
           x="200.24123"
           id="tspan3437"
           sodipodi:role="line" /></text>
      <path
         inkscape:connector-curvature="0"
         d="m 63.059067,701.16646 623.137153,0 c 6.337,0 10.56164,4.06019 10.56164,10.15049 l 0,91.35441 c 0,6.0903 -4.22464,10.15048 -10.56164,10.15048 l -623.137153,0 c -6.336987,0 -10.561637,-4.06018 -10.561637,-10.15048 l 0,-91.35441 c 0,-6.0903 4.22465,-10.15049 10.561637,-10.15049 z"
         id="rect5327"
         style="fill:#e8e8e8;fill-opacity:1;stroke:#383838;stroke-width:1.01467502;stroke-linecap:round;stroke-linejoin:round;stroke-miterlimit:4;stroke-opacity:1;stroke-dasharray:none;stroke-dashoffset:0" />
      <path
         inkscape:connector-curvature="0"
         d="m 159.22856,865.08132 25.61736,0 c 1.68703,0 2.7792,-3.87921 2.7792,-9.69805 l 0,-39.75218"
         id="path3795"
         style="fill:none;stroke:#383838;stroke-width:1.48819005;stroke-linecap:round;stroke-linejoin:round;stroke-miterlimit:4;stroke-opacity:1;stroke-dasharray:none;marker-end:url(#Arrow1Mend)" />
      <path
         sodipodi:nodetypes="cssc"
         inkscape:connector-curvature="0"
         d="m 108.35182,798.50804 25.64739,0 c 2.74043,0 5.47458,2.41865 5.47458,5.04665 l 0,41.11537"
         id="path3795-5"
         style="fill:none;stroke:#383838;stroke-width:1.48819005;stroke-linecap:round;stroke-linejoin:round;stroke-miterlimit:4;stroke-opacity:1;stroke-dasharray:none;marker-end:url(#Arrow1Mend)" />
      <path
         inkscape:connector-curvature="0"
         d="m 26.494561,788.22602 23.708332,0"
         id="path4451"
         style="fill:none;stroke:#383838;stroke-width:1.48819005;stroke-linecap:round;stroke-linejoin:round;stroke-miterlimit:4;stroke-opacity:1;stroke-dasharray:none;marker-end:url(#Arrow1Mend-6)" />
      <path
         inkscape:connector-curvature="0"
         d="m 123.34325,868.89892 0,40.36505"
         id="path4451-5"
         style="fill:none;stroke:#383838;stroke-width:1.48819005;stroke-linecap:round;stroke-linejoin:round;stroke-miterlimit:4;stroke-opacity:1;stroke-dasharray:none;marker-end:url(#Arrow1Mend-6)" />
      <path
         inkscape:connector-curvature="0"
         d="m 127.0813,865.16145 a 3.738055,3.7375045 0 0 1 -7.47611,0 3.738055,3.7375045 0 1 1 7.47611,0 z"
         id="path5407"
         style="fill:#383838;fill-opacity:1;stroke:#383838;stroke-width:0.67645007;stroke-linecap:round;stroke-linejoin:round;stroke-miterlimit:4;stroke-opacity:1;stroke-dasharray:none;stroke-dashoffset:0" />
      <path
         inkscape:connector-curvature="0"
         d="m 162.13891,865.16145 a 3.7380545,3.737504 0 0 1 -7.4761,0 3.7380545,3.737504 0 1 1 7.4761,0 z"
         id="path5407-7"
         style="fill:#383838;fill-opacity:1;stroke:#383838;stroke-width:0.67645007;stroke-linecap:round;stroke-linejoin:round;stroke-miterlimit:4;stroke-opacity:1;stroke-dasharray:none;stroke-dashoffset:0" />
      <path
         inkscape:connector-curvature="0"
         d="m 175.943,865.16144 a 17.46206,17.459489 0 0 1 -34.92412,0 17.46206,17.459489 0 1 1 34.92412,0 z"
         id="path5435-9"
         style="fill:none;stroke:#383838;stroke-width:1.01467502;stroke-linecap:round;stroke-linejoin:round;stroke-miterlimit:4;stroke-opacity:1;stroke-dasharray:none;stroke-dashoffset:0" />
      <path
         inkscape:connector-curvature="0"
         d="m 140.8053,865.16144 a 17.46206,17.459489 0 0 1 -34.92412,0 17.46206,17.459489 0 1 1 34.92412,0 z"
         id="path5435-9-6"
         style="fill:none;stroke:#383838;stroke-width:1.01467502;stroke-linecap:round;stroke-linejoin:round;stroke-miterlimit:4;stroke-opacity:1;stroke-dasharray:none;stroke-dashoffset:0" />
      <text
         sodipodi:linespacing="125%"
         x="58.427437"
         y="803.04846"
         id="text5493"
         xml:space="preserve"
         style="font-size:20px;font-style:normal;font-variant:normal;font-weight:normal;font-stretch:normal;text-align:start;line-height:125%;letter-spacing:0px;word-spacing:0px;text-anchor:start;fill:#383838;fill-opacity:1;stroke:none;font-family:Inconsolata LGC;-inkscape-font-specification:Inconsolata LGC"><tspan
           x="58.427437"
           y="803.04846"
           id="tspan5495"
           style="font-size:18px">cons:</tspan></text>
      <text
         sodipodi:linespacing="125%"
         id="text3498"
         y="931.59216"
         x="11.175281"
         style="font-size:26.60579491px;font-style:normal;font-weight:normal;line-height:125%;letter-spacing:0px;word-spacing:0px;fill:#000000;fill-opacity:1;stroke:none;font-family:Sans"
         xml:space="preserve"><tspan
           style="font-size:15.96347713px"
           y="931.59216"
           x="11.175281"
           id="tspan3500"
           sodipodi:role="line">parameters: x,y</tspan><tspan
           style="font-size:15.96347713px"
           id="tspan3502"
           y="951.54651"
           x="11.175281"
           sodipodi:role="line">body:</tspan><tspan
           style="font-size:11.97260761px"
           id="tspan3550"
           y="967.52295"
           x="11.175281"
           sodipodi:role="line">(define (set-x! v) . . . )</tspan><tspan
           style="font-size:11.97260761px"
           id="tspan3556"
           y="982.48871"
           x="11.175281"
           sodipodi:role="line">(define (set-y! v) . . . )</tspan><tspan
           style="font-size:11.97260761px"
           id="tspan3568"
           y="997.45447"
           x="11.175281"
           sodipodi:role="line">(define (dispatch m) . . . )</tspan><tspan
           style="font-size:11.97260761px"
           id="tspan3570"
           y="1012.4202"
           x="11.175281"
           sodipodi:role="line">dispatch</tspan></text>
      <text
         xml:space="preserve"
         style="font-size:40px;font-style:normal;font-weight:normal;line-height:125%;letter-spacing:0px;word-spacing:0px;fill:#000000;fill-opacity:1;stroke:none;font-family:Sans"
         x="-0.77246052"
         y="773.34204"
         id="text3678"
         sodipodi:linespacing="125%"><tspan
           sodipodi:role="line"
           id="tspan3680"
           x="-0.77246052"
           y="773.34204"
           style="font-size:14px">global</tspan><tspan
           sodipodi:role="line"
           x="-0.77246052"
           y="790.84204"
           id="tspan3682"
           style="font-size:14px">env</tspan></text>
      <path
         sodipodi:nodetypes="cssc"
         inkscape:connector-curvature="0"
         d="m 93.64668,780.62329 157.00935,0 c 2.66584,0 4.15693,1.62462 4.15693,4.06161 l 0,60.11188"
         id="path3795-5-7"
         style="fill:none;stroke:#383838;stroke-width:1.48819005;stroke-linecap:round;stroke-linejoin:round;stroke-miterlimit:4;stroke-opacity:1;stroke-dasharray:none;marker-end:url(#Arrow1Mend)" />
      <text
         sodipodi:linespacing="125%"
         x="58.363358"
         y="784.73975"
         id="text5493-9"
         xml:space="preserve"
         style="font-size:20px;font-style:normal;font-variant:normal;font-weight:normal;font-stretch:normal;text-align:start;line-height:125%;letter-spacing:0px;word-spacing:0px;text-anchor:start;fill:#383838;fill-opacity:1;stroke:none;font-family:Inconsolata LGC;-inkscape-font-specification:Inconsolata LGC"><tspan
           x="58.363358"
           y="784.73975"
           id="tspan5495-8"
           style="font-size:18px">car:</tspan></text>
      <path
         sodipodi:nodetypes="cssc"
         inkscape:connector-curvature="0"
         d="m 272.89279,864.51483 25.90979,0 c 1.70629,0 2.81093,-3.25835 2.81093,-9.61375 l 0,-39.40664"
         id="path3795-4"
         style="fill:none;stroke:#383838;stroke-width:1.48819005;stroke-linecap:round;stroke-linejoin:round;stroke-miterlimit:4;stroke-opacity:1;stroke-dasharray:none;marker-end:url(#Arrow1Mend)" />
      <path
         inkscape:connector-curvature="0"
         d="m 237.00747,868.33243 0,40.36505"
         id="path4451-5-3"
         style="fill:none;stroke:#383838;stroke-width:1.48819005;stroke-linecap:round;stroke-linejoin:round;stroke-miterlimit:4;stroke-opacity:1;stroke-dasharray:none;marker-end:url(#Arrow1Mend-6)" />
      <path
         inkscape:connector-curvature="0"
         d="m 240.74552,864.59496 a 3.738055,3.7375045 0 0 1 -7.47611,0 3.738055,3.7375045 0 1 1 7.47611,0 z"
         id="path5407-93"
         style="fill:#383838;fill-opacity:1;stroke:#383838;stroke-width:0.67645007;stroke-linecap:round;stroke-linejoin:round;stroke-miterlimit:4;stroke-opacity:1;stroke-dasharray:none;stroke-dashoffset:0" />
      <path
         inkscape:connector-curvature="0"
         d="m 275.80314,864.59496 a 3.7380545,3.737504 0 0 1 -7.4761,0 3.7380545,3.737504 0 1 1 7.4761,0 z"
         id="path5407-7-0"
         style="fill:#383838;fill-opacity:1;stroke:#383838;stroke-width:0.67645007;stroke-linecap:round;stroke-linejoin:round;stroke-miterlimit:4;stroke-opacity:1;stroke-dasharray:none;stroke-dashoffset:0" />
      <path
         inkscape:connector-curvature="0"
         d="m 289.60723,864.59495 a 17.462065,17.459493 0 0 1 -34.92413,0 17.462065,17.459493 0 1 1 34.92413,0 z"
         id="path5435-9-7"
         style="fill:none;stroke:#383838;stroke-width:1.01467502;stroke-linecap:round;stroke-linejoin:round;stroke-miterlimit:4;stroke-opacity:1;stroke-dasharray:none;stroke-dashoffset:0" />
      <path
         inkscape:connector-curvature="0"
         d="m 254.46952,864.59495 a 17.46206,17.459489 0 0 1 -34.92411,0 17.46206,17.459489 0 1 1 34.92411,0 z"
         id="path5435-9-6-0"
         style="fill:none;stroke:#383838;stroke-width:1.01467502;stroke-linecap:round;stroke-linejoin:round;stroke-miterlimit:4;stroke-opacity:1;stroke-dasharray:none;stroke-dashoffset:0" />
      <text
         sodipodi:linespacing="125%"
         id="text3498-1"
         y="932.30725"
         x="188.60448"
         style="font-size:26.60579491px;font-style:normal;font-weight:normal;line-height:125%;letter-spacing:0px;word-spacing:0px;fill:#000000;fill-opacity:1;stroke:none;font-family:Sans"
         xml:space="preserve"><tspan
           style="font-size:15.96347713px"
           y="932.30725"
           x="188.60448"
           id="tspan3500-2"
           sodipodi:role="line">parameters: z</tspan><tspan
           style="font-size:15.96347713px"
           id="tspan3502-0"
           y="952.2616"
           x="188.60448"
           sodipodi:role="line">body:</tspan><tspan
           style="font-size:11.97260761px"
           id="tspan3570-71"
           y="968.23804"
           x="188.60448"
           sodipodi:role="line">(z 'car)</tspan></text>
      <path
         sodipodi:nodetypes="cssc"
         inkscape:connector-curvature="0"
         d="m 99.487455,759.74788 266.752435,0 c 3.47524,0 6.60098,2.17181 6.60098,5.42963 l 0,80.35868"
         id="path3795-5-7-5"
         style="fill:none;stroke:#383838;stroke-width:1.48819005;stroke-linecap:round;stroke-linejoin:round;stroke-miterlimit:4;stroke-opacity:1;stroke-dasharray:none;marker-end:url(#Arrow1Mend)" />
      <text
         sodipodi:linespacing="125%"
         x="58.204132"
         y="763.86432"
         id="text5493-9-6"
         xml:space="preserve"
         style="font-size:20px;font-style:normal;font-variant:normal;font-weight:normal;font-stretch:normal;text-align:start;line-height:125%;letter-spacing:0px;word-spacing:0px;text-anchor:start;fill:#383838;fill-opacity:1;stroke:none;font-family:Inconsolata LGC;-inkscape-font-specification:Inconsolata LGC"><tspan
           x="58.204132"
           y="763.86432"
           id="tspan5495-8-7"
           style="font-size:18px">cdr:</tspan></text>
      <path
         inkscape:connector-curvature="0"
         d="m 392.73356,865.63943 25.90979,0 c 1.70629,0 2.81093,-3.96062 2.81093,-9.90156 l 0,-40.58639"
         id="path3795-4-1"
         style="fill:none;stroke:#383838;stroke-width:1.48819005;stroke-linecap:round;stroke-linejoin:round;stroke-miterlimit:4;stroke-opacity:1;stroke-dasharray:none;marker-end:url(#Arrow1Mend)" />
      <path
         inkscape:connector-curvature="0"
         d="m 356.84824,869.45703 0,40.36505"
         id="path4451-5-3-8"
         style="fill:none;stroke:#383838;stroke-width:1.48819005;stroke-linecap:round;stroke-linejoin:round;stroke-miterlimit:4;stroke-opacity:1;stroke-dasharray:none;marker-end:url(#Arrow1Mend-6)" />
      <path
         inkscape:connector-curvature="0"
         d="m 360.58629,865.71956 a 3.738055,3.7375045 0 0 1 -7.47611,0 3.738055,3.7375045 0 1 1 7.47611,0 z"
         id="path5407-93-8"
         style="fill:#383838;fill-opacity:1;stroke:#383838;stroke-width:0.67645007;stroke-linecap:round;stroke-linejoin:round;stroke-miterlimit:4;stroke-opacity:1;stroke-dasharray:none;stroke-dashoffset:0" />
      <path
         inkscape:connector-curvature="0"
         d="m 395.64391,865.71956 a 3.7380545,3.737504 0 0 1 -7.4761,0 3.7380545,3.737504 0 1 1 7.4761,0 z"
         id="path5407-7-0-4"
         style="fill:#383838;fill-opacity:1;stroke:#383838;stroke-width:0.67645007;stroke-linecap:round;stroke-linejoin:round;stroke-miterlimit:4;stroke-opacity:1;stroke-dasharray:none;stroke-dashoffset:0" />
      <path
         inkscape:connector-curvature="0"
         d="m 409.448,865.71955 a 17.462065,17.459493 0 0 1 -34.92413,0 17.462065,17.459493 0 1 1 34.92413,0 z"
         id="path5435-9-7-3"
         style="fill:none;stroke:#383838;stroke-width:1.01467502;stroke-linecap:round;stroke-linejoin:round;stroke-miterlimit:4;stroke-opacity:1;stroke-dasharray:none;stroke-dashoffset:0" />
      <path
         inkscape:connector-curvature="0"
         d="m 374.31029,865.71955 a 17.46206,17.459489 0 0 1 -34.92411,0 17.46206,17.459489 0 1 1 34.92411,0 z"
         id="path5435-9-6-0-9"
         style="fill:none;stroke:#383838;stroke-width:1.01467502;stroke-linecap:round;stroke-linejoin:round;stroke-miterlimit:4;stroke-opacity:1;stroke-dasharray:none;stroke-dashoffset:0" />
      <text
         sodipodi:linespacing="125%"
         id="text3498-1-0"
         y="933.43182"
         x="308.44525"
         style="font-size:26.60579491px;font-style:normal;font-weight:normal;line-height:125%;letter-spacing:0px;word-spacing:0px;fill:#000000;fill-opacity:1;stroke:none;font-family:Sans"
         xml:space="preserve"><tspan
           style="font-size:15.96347713px"
           y="933.43182"
           x="308.44525"
           id="tspan3500-2-7"
           sodipodi:role="line">parameters: z</tspan><tspan
           style="font-size:15.96347713px"
           id="tspan3502-0-0"
           y="953.38617"
           x="308.44525"
           sodipodi:role="line">body:</tspan><tspan
           style="font-size:11.97260761px"
           id="tspan3570-71-3"
           y="969.36261"
           x="308.44525"
           sodipodi:role="line">(z 'cdr)</tspan></text>
      <text
         sodipodi:linespacing="125%"
         x="58.460007"
         y="744.51031"
         id="text5493-9-4"
         xml:space="preserve"
         style="font-size:20px;font-style:normal;font-variant:normal;font-weight:normal;font-stretch:normal;text-align:start;line-height:125%;letter-spacing:0px;word-spacing:0px;text-anchor:start;fill:#383838;fill-opacity:1;stroke:none;font-family:Inconsolata LGC;-inkscape-font-specification:Inconsolata LGC"><tspan
           x="58.460007"
           y="744.51031"
           id="tspan5495-8-0"
           style="font-size:18px">set-car!:</tspan></text>
      <text
         sodipodi:linespacing="125%"
         x="58.300781"
         y="723.63489"
         id="text5493-9-6-2"
         xml:space="preserve"
         style="font-size:20px;font-style:normal;font-variant:normal;font-weight:normal;font-stretch:normal;text-align:start;line-height:125%;letter-spacing:0px;word-spacing:0px;text-anchor:start;fill:#383838;fill-opacity:1;stroke:none;font-family:Inconsolata LGC;-inkscape-font-specification:Inconsolata LGC"><tspan
           x="58.300781"
           y="723.63489"
           id="tspan5495-8-7-6"
           style="font-size:18px">set-cdr!:</tspan></text>
      <path
         inkscape:connector-curvature="0"
         d="m 518.59513,864.88548 25.90979,0 c 1.70629,0 2.81093,-3.88387 2.81093,-9.70969 l 0,-39.79989"
         id="path3795-4-1-0"
         style="fill:none;stroke:#383838;stroke-width:1.48819005;stroke-linecap:round;stroke-linejoin:round;stroke-miterlimit:4;stroke-opacity:1;stroke-dasharray:none;marker-end:url(#Arrow1Mend)" />
      <path
         inkscape:connector-curvature="0"
         d="m 482.70981,868.70308 0,40.36505"
         id="path4451-5-3-8-4"
         style="fill:none;stroke:#383838;stroke-width:1.48819005;stroke-linecap:round;stroke-linejoin:round;stroke-miterlimit:4;stroke-opacity:1;stroke-dasharray:none;marker-end:url(#Arrow1Mend-6)" />
      <path
         inkscape:connector-curvature="0"
         d="m 486.44786,864.96561 a 3.738055,3.7375045 0 0 1 -7.47611,0 3.738055,3.7375045 0 1 1 7.47611,0 z"
         id="path5407-93-8-7"
         style="fill:#383838;fill-opacity:1;stroke:#383838;stroke-width:0.67645007;stroke-linecap:round;stroke-linejoin:round;stroke-miterlimit:4;stroke-opacity:1;stroke-dasharray:none;stroke-dashoffset:0" />
      <path
         inkscape:connector-curvature="0"
         d="m 521.50548,864.96561 a 3.7380545,3.737504 0 0 1 -7.4761,0 3.7380545,3.737504 0 1 1 7.4761,0 z"
         id="path5407-7-0-4-6"
         style="fill:#383838;fill-opacity:1;stroke:#383838;stroke-width:0.67645007;stroke-linecap:round;stroke-linejoin:round;stroke-miterlimit:4;stroke-opacity:1;stroke-dasharray:none;stroke-dashoffset:0" />
      <path
         inkscape:connector-curvature="0"
         d="m 535.30957,864.9656 a 17.462065,17.459493 0 0 1 -34.92413,0 17.462065,17.459493 0 1 1 34.92413,0 z"
         id="path5435-9-7-3-1"
         style="fill:none;stroke:#383838;stroke-width:1.01467502;stroke-linecap:round;stroke-linejoin:round;stroke-miterlimit:4;stroke-opacity:1;stroke-dasharray:none;stroke-dashoffset:0" />
      <path
         inkscape:connector-curvature="0"
         d="m 500.17186,864.9656 a 17.46206,17.459489 0 0 1 -34.92411,0 17.46206,17.459489 0 1 1 34.92411,0 z"
         id="path5435-9-6-0-9-8"
         style="fill:none;stroke:#383838;stroke-width:1.01467502;stroke-linecap:round;stroke-linejoin:round;stroke-miterlimit:4;stroke-opacity:1;stroke-dasharray:none;stroke-dashoffset:0" />
      <text
         sodipodi:linespacing="125%"
         id="text3498-1-0-3"
         y="934.67786"
         x="427.30682"
         style="font-size:26.60579491px;font-style:normal;font-weight:normal;line-height:125%;letter-spacing:0px;word-spacing:0px;fill:#000000;fill-opacity:1;stroke:none;font-family:Sans"
         xml:space="preserve"><tspan
           style="font-size:15.96347713px"
           y="934.67786"
           x="427.30682"
           id="tspan3500-2-7-7"
           sodipodi:role="line">parameters: z</tspan><tspan
           style="font-size:15.96347713px"
           id="tspan3502-0-0-5"
           y="954.6322"
           x="427.30682"
           sodipodi:role="line">body:</tspan><tspan
           style="font-size:11.97260761px"
           id="tspan3570-71-3-4"
           y="970.60864"
           x="427.30682"
           sodipodi:role="line">((z 'set-car!) new-value)</tspan><tspan
           id="tspan5768"
           style="font-size:11.97260761px"
           y="985.5744"
           x="427.30682"
           sodipodi:role="line">z</tspan></text>
      <path
         inkscape:connector-curvature="0"
         d="m 648.59513,864.88548 25.90979,0 c 1.70629,0 2.81093,-3.88387 2.81093,-9.70969 l 0,-39.79989"
         id="path3795-4-1-0-8"
         style="fill:none;stroke:#383838;stroke-width:1.48819005;stroke-linecap:round;stroke-linejoin:round;stroke-miterlimit:4;stroke-opacity:1;stroke-dasharray:none;marker-end:url(#Arrow1Mend)" />
      <path
         inkscape:connector-curvature="0"
         d="m 612.70981,868.70308 0,40.36505"
         id="path4451-5-3-8-4-7"
         style="fill:none;stroke:#383838;stroke-width:1.48819005;stroke-linecap:round;stroke-linejoin:round;stroke-miterlimit:4;stroke-opacity:1;stroke-dasharray:none;marker-end:url(#Arrow1Mend-6)" />
      <path
         inkscape:connector-curvature="0"
         d="m 616.44786,864.96561 a 3.738055,3.7375045 0 0 1 -7.47611,0 3.738055,3.7375045 0 1 1 7.47611,0 z"
         id="path5407-93-8-7-5"
         style="fill:#383838;fill-opacity:1;stroke:#383838;stroke-width:0.67645007;stroke-linecap:round;stroke-linejoin:round;stroke-miterlimit:4;stroke-opacity:1;stroke-dasharray:none;stroke-dashoffset:0" />
      <path
         inkscape:connector-curvature="0"
         d="m 651.50548,864.96561 a 3.7380545,3.737504 0 0 1 -7.4761,0 3.7380545,3.737504 0 1 1 7.4761,0 z"
         id="path5407-7-0-4-6-7"
         style="fill:#383838;fill-opacity:1;stroke:#383838;stroke-width:0.67645007;stroke-linecap:round;stroke-linejoin:round;stroke-miterlimit:4;stroke-opacity:1;stroke-dasharray:none;stroke-dashoffset:0" />
      <path
         inkscape:connector-curvature="0"
         d="m 665.30957,864.9656 a 17.462065,17.459493 0 0 1 -34.92413,0 17.462065,17.459493 0 1 1 34.92413,0 z"
         id="path5435-9-7-3-1-7"
         style="fill:none;stroke:#383838;stroke-width:1.01467502;stroke-linecap:round;stroke-linejoin:round;stroke-miterlimit:4;stroke-opacity:1;stroke-dasharray:none;stroke-dashoffset:0" />
      <path
         inkscape:connector-curvature="0"
         d="m 630.17186,864.9656 a 17.46206,17.459489 0 0 1 -34.92411,0 17.46206,17.459489 0 1 1 34.92411,0 z"
         id="path5435-9-6-0-9-8-1"
         style="fill:none;stroke:#383838;stroke-width:1.01467502;stroke-linecap:round;stroke-linejoin:round;stroke-miterlimit:4;stroke-opacity:1;stroke-dasharray:none;stroke-dashoffset:0" />
      <text
         sodipodi:linespacing="125%"
         id="text3498-1-0-3-7"
         y="927.67786"
         x="581.30682"
         style="font-size:26.60579491px;font-style:normal;font-weight:normal;line-height:125%;letter-spacing:0px;word-spacing:0px;fill:#000000;fill-opacity:1;stroke:none;font-family:Sans"
         xml:space="preserve"><tspan
           style="font-size:15.96347713px"
           y="927.67786"
           x="581.30682"
           id="tspan3500-2-7-7-1"
           sodipodi:role="line">parameters: z</tspan><tspan
           style="font-size:15.96347713px"
           id="tspan3502-0-0-5-9"
           y="947.6322"
           x="581.30682"
           sodipodi:role="line">body:</tspan><tspan
           style="font-size:11.97260761px"
           id="tspan3570-71-3-4-5"
           y="963.60864"
           x="581.30682"
           sodipodi:role="line">((z 'set-cdr!) new-value)</tspan><tspan
           id="tspan5770"
           style="font-size:11.97260761px"
           y="978.5744"
           x="581.30682"
           sodipodi:role="line">z</tspan></text>
      <path
         sodipodi:nodetypes="cssc"
         inkscape:connector-curvature="0"
         d="m 139.02114,740.90994 352.78564,0 c 5.59888,0 8.73235,2.64663 8.73235,6.61671 l 0,97.92757"
         id="path3795-5-7-5-1"
         style="fill:none;stroke:#383838;stroke-width:1.48818994;stroke-linecap:round;stroke-linejoin:round;stroke-miterlimit:4;stroke-opacity:1;stroke-dasharray:none;marker-end:url(#Arrow1Mend)" />
      <path
         sodipodi:nodetypes="cssc"
         inkscape:connector-curvature="0"
         d="m 137.93883,717.53198 484.01128,0 c 5.25656,0 8.56259,3.22276 8.56259,8.05704 l 0,119.24428"
         id="path3795-5-7-5-1-0"
         style="fill:none;stroke:#383838;stroke-width:1.48818994;stroke-linecap:round;stroke-linejoin:round;stroke-miterlimit:4;stroke-opacity:1;stroke-dasharray:none;marker-end:url(#Arrow1Mend)" />
    </g>
  </g>
</svg>
