<?xml version="1.0" encoding="UTF-8" standalone="no"?>
<!-- Created with Inkscape (http://www.inkscape.org/) -->

<svg
   xmlns:dc="http://purl.org/dc/elements/1.1/"
   xmlns:cc="http://creativecommons.org/ns#"
   xmlns:rdf="http://www.w3.org/1999/02/22-rdf-syntax-ns#"
   xmlns:svg="http://www.w3.org/2000/svg"
   xmlns="http://www.w3.org/2000/svg"
   xmlns:sodipodi="http://sodipodi.sourceforge.net/DTD/sodipodi-0.dtd"
   xmlns:inkscape="http://www.inkscape.org/namespaces/inkscape"
   width="758"
   height="416"
   id="svg3055"
   version="1.1"
   inkscape:version="0.48.4 r9939"
   sodipodi:docname="Ex3_11_Step2.svg">
  <defs
     id="defs3057">
    <marker
       refX="0"
       refY="0"
       orient="auto"
       id="Arrow1Mend"
       style="overflow:visible">
      <path
         inkscape:connector-curvature="0"
         d="M 0,0 5,-5 -12.5,0 5,5 0,0 z"
         transform="matrix(-0.4,0,0,-0.4,-4,0)"
         id="path3809"
         style="fill:#383838;fill-rule:evenodd;stroke:#383838;stroke-width:1pt;marker-start:none" />
    </marker>
    <marker
       refX="0"
       refY="0"
       orient="auto"
       id="marker3075"
       style="overflow:visible">
      <path
         inkscape:connector-curvature="0"
         d="M 0,0 5,-5 -12.5,0 5,5 0,0 z"
         transform="matrix(-0.4,0,0,-0.4,-4,0)"
         id="path3077"
         style="fill:#383838;fill-rule:evenodd;stroke:#383838;stroke-width:1pt;marker-start:none" />
    </marker>
    <marker
       refX="0"
       refY="0"
       orient="auto"
       id="Arrow1Mend-6"
       style="overflow:visible">
      <path
         inkscape:connector-curvature="0"
         d="M 0,0 5,-5 -12.5,0 5,5 0,0 z"
         transform="matrix(-0.4,0,0,-0.4,-4,0)"
         id="path3809-6-2"
         style="fill:#383838;fill-rule:evenodd;stroke:#383838;stroke-width:1pt;marker-start:none" />
    </marker>
    <marker
       refX="0"
       refY="0"
       orient="auto"
       id="marker3081"
       style="overflow:visible">
      <path
         inkscape:connector-curvature="0"
         d="M 0,0 5,-5 -12.5,0 5,5 0,0 z"
         transform="matrix(-0.4,0,0,-0.4,-4,0)"
         id="path3083"
         style="fill:#383838;fill-rule:evenodd;stroke:#383838;stroke-width:1pt;marker-start:none" />
    </marker>
    <marker
       refX="0"
       refY="0"
       orient="auto"
       id="marker3085"
       style="overflow:visible">
      <path
         inkscape:connector-curvature="0"
         d="M 0,0 5,-5 -12.5,0 5,5 0,0 z"
         transform="matrix(-0.4,0,0,-0.4,-4,0)"
         id="path3087"
         style="fill:#383838;fill-rule:evenodd;stroke:#383838;stroke-width:1pt;marker-start:none" />
    </marker>
    <marker
       refX="0"
       refY="0"
       orient="auto"
       id="marker3089"
       style="overflow:visible">
      <path
         inkscape:connector-curvature="0"
         d="M 0,0 5,-5 -12.5,0 5,5 0,0 z"
         transform="matrix(-0.4,0,0,-0.4,-4,0)"
         id="path3091"
         style="fill:#383838;fill-rule:evenodd;stroke:#383838;stroke-width:1pt;marker-start:none" />
    </marker>
    <marker
       refX="0"
       refY="0"
       orient="auto"
       id="marker3093"
       style="overflow:visible">
      <path
         inkscape:connector-curvature="0"
         d="M 0,0 5,-5 -12.5,0 5,5 0,0 z"
         transform="matrix(-0.4,0,0,-0.4,-4,0)"
         id="path3095"
         style="fill:#383838;fill-rule:evenodd;stroke:#383838;stroke-width:1pt;marker-start:none" />
    </marker>
    <marker
       refX="0"
       refY="0"
       orient="auto"
       id="Arrow1Mend-5"
       style="overflow:visible">
      <path
         inkscape:connector-curvature="0"
         d="M 0,0 5,-5 -12.5,0 5,5 0,0 z"
         transform="matrix(-0.4,0,0,-0.4,-4,0)"
         id="path3809-2"
         style="fill:#383838;fill-rule:evenodd;stroke:#383838;stroke-width:1pt;marker-start:none" />
    </marker>
    <marker
       refX="0"
       refY="0"
       orient="auto"
       id="Arrow1Mend-6-9"
       style="overflow:visible">
      <path
         inkscape:connector-curvature="0"
         d="M 0,0 5,-5 -12.5,0 5,5 0,0 z"
         transform="matrix(-0.4,0,0,-0.4,-4,0)"
         id="path3809-6-2-8"
         style="fill:#383838;fill-rule:evenodd;stroke:#383838;stroke-width:1pt;marker-start:none" />
    </marker>
    <marker
       refX="0"
       refY="0"
       orient="auto"
       id="Arrow1Mend-1"
       style="overflow:visible">
      <path
         inkscape:connector-curvature="0"
         d="M 0,0 5,-5 -12.5,0 5,5 0,0 z"
         transform="matrix(-0.4,0,0,-0.4,-4,0)"
         id="path3809-4"
         style="fill:#383838;fill-rule:evenodd;stroke:#383838;stroke-width:1pt;marker-start:none" />
    </marker>
    <marker
       refX="0"
       refY="0"
       orient="auto"
       id="marker5763"
       style="overflow:visible">
      <path
         inkscape:connector-curvature="0"
         d="M 0,0 5,-5 -12.5,0 5,5 0,0 z"
         transform="matrix(-0.4,0,0,-0.4,-4,0)"
         id="path5765"
         style="fill:#383838;fill-rule:evenodd;stroke:#383838;stroke-width:1pt;marker-start:none" />
    </marker>
    <marker
       refX="0"
       refY="0"
       orient="auto"
       id="Arrow1Mend-6-4"
       style="overflow:visible">
      <path
         inkscape:connector-curvature="0"
         d="M 0,0 5,-5 -12.5,0 5,5 0,0 z"
         transform="matrix(-0.4,0,0,-0.4,-4,0)"
         id="path3809-6-2-9"
         style="fill:#383838;fill-rule:evenodd;stroke:#383838;stroke-width:1pt;marker-start:none" />
    </marker>
    <marker
       refX="0"
       refY="0"
       orient="auto"
       id="marker5860"
       style="overflow:visible">
      <path
         inkscape:connector-curvature="0"
         d="M 0,0 5,-5 -12.5,0 5,5 0,0 z"
         transform="matrix(-0.4,0,0,-0.4,-4,0)"
         id="path5862"
         style="fill:#383838;fill-rule:evenodd;stroke:#383838;stroke-width:1pt;marker-start:none" />
    </marker>
    <marker
       refX="0"
       refY="0"
       orient="auto"
       id="Arrow1Mend-62"
       style="overflow:visible">
      <path
         inkscape:connector-curvature="0"
         d="M 0,0 5,-5 -12.5,0 5,5 0,0 z"
         transform="matrix(-0.4,0,0,-0.4,-4,0)"
         id="path3809-7"
         style="fill:#383838;fill-rule:evenodd;stroke:#383838;stroke-width:1pt;marker-start:none" />
    </marker>
    <marker
       refX="0"
       refY="0"
       orient="auto"
       id="Arrow1Mend-6-6"
       style="overflow:visible">
      <path
         inkscape:connector-curvature="0"
         d="M 0,0 5,-5 -12.5,0 5,5 0,0 z"
         transform="matrix(-0.4,0,0,-0.4,-4,0)"
         id="path3809-6-2-5"
         style="fill:#383838;fill-rule:evenodd;stroke:#383838;stroke-width:1pt;marker-start:none" />
    </marker>
    <marker
       refX="0"
       refY="0"
       orient="auto"
       id="Arrow1Mend-0"
       style="overflow:visible">
      <path
         inkscape:connector-curvature="0"
         d="M 0,0 5,-5 -12.5,0 5,5 0,0 z"
         transform="matrix(-0.4,0,0,-0.4,-4,0)"
         id="path3809-0"
         style="fill:#383838;fill-rule:evenodd;stroke:#383838;stroke-width:1pt;marker-start:none" />
    </marker>
    <marker
       refX="0"
       refY="0"
       orient="auto"
       id="marker6078"
       style="overflow:visible">
      <path
         inkscape:connector-curvature="0"
         d="M 0,0 5,-5 -12.5,0 5,5 0,0 z"
         transform="matrix(-0.4,0,0,-0.4,-4,0)"
         id="path6080"
         style="fill:#383838;fill-rule:evenodd;stroke:#383838;stroke-width:1pt;marker-start:none" />
    </marker>
    <marker
       refX="0"
       refY="0"
       orient="auto"
       id="Arrow1Mend-9"
       style="overflow:visible">
      <path
         inkscape:connector-curvature="0"
         d="M 0,0 5,-5 -12.5,0 5,5 0,0 z"
         transform="matrix(-0.4,0,0,-0.4,-4,0)"
         id="path3809-02"
         style="fill:#383838;fill-rule:evenodd;stroke:#383838;stroke-width:1pt;marker-start:none" />
    </marker>
    <marker
       refX="0"
       refY="0"
       orient="auto"
       id="marker6203"
       style="overflow:visible">
      <path
         inkscape:connector-curvature="0"
         d="M 0,0 5,-5 -12.5,0 5,5 0,0 z"
         transform="matrix(-0.4,0,0,-0.4,-4,0)"
         id="path6205"
         style="fill:#383838;fill-rule:evenodd;stroke:#383838;stroke-width:1pt;marker-start:none" />
    </marker>
    <marker
       refX="0"
       refY="0"
       orient="auto"
       id="Arrow1Mend-6-7"
       style="overflow:visible">
      <path
         inkscape:connector-curvature="0"
         d="M 0,0 5,-5 -12.5,0 5,5 0,0 z"
         transform="matrix(-0.4,0,0,-0.4,-4,0)"
         id="path3809-6-2-1"
         style="fill:#383838;fill-rule:evenodd;stroke:#383838;stroke-width:1pt;marker-start:none" />
    </marker>
    <marker
       refX="0"
       refY="0"
       orient="auto"
       id="Arrow1Mend-6-69"
       style="overflow:visible">
      <path
         inkscape:connector-curvature="0"
         d="M 0,0 5,-5 -12.5,0 5,5 0,0 z"
         transform="matrix(-0.4,0,0,-0.4,-4,0)"
         id="path3809-6-2-0"
         style="fill:#383838;fill-rule:evenodd;stroke:#383838;stroke-width:1pt;marker-start:none" />
    </marker>
    <marker
       refX="0"
       refY="0"
       orient="auto"
       id="Arrow1Mend-8"
       style="overflow:visible">
      <path
         inkscape:connector-curvature="0"
         d="M 0,0 5,-5 -12.5,0 5,5 0,0 z"
         transform="matrix(-0.4,0,0,-0.4,-4,0)"
         id="path3809-3"
         style="fill:#383838;fill-rule:evenodd;stroke:#383838;stroke-width:1pt;marker-start:none" />
    </marker>
    <marker
       refX="0"
       refY="0"
       orient="auto"
       id="marker6316"
       style="overflow:visible">
      <path
         inkscape:connector-curvature="0"
         d="M 0,0 5,-5 -12.5,0 5,5 0,0 z"
         transform="matrix(-0.4,0,0,-0.4,-4,0)"
         id="path6318"
         style="fill:#383838;fill-rule:evenodd;stroke:#383838;stroke-width:1pt;marker-start:none" />
    </marker>
    <marker
       refX="0"
       refY="0"
       orient="auto"
       id="Arrow1Mend-4"
       style="overflow:visible">
      <path
         inkscape:connector-curvature="0"
         d="M 0,0 5,-5 -12.5,0 5,5 0,0 z"
         transform="matrix(-0.4,0,0,-0.4,-4,0)"
         id="path3809-5"
         style="fill:#383838;fill-rule:evenodd;stroke:#383838;stroke-width:1pt;marker-start:none" />
    </marker>
  </defs>
  <sodipodi:namedview
     id="base"
     pagecolor="#ffffff"
     bordercolor="#666666"
     borderopacity="1.0"
     inkscape:pageopacity="0.0"
     inkscape:pageshadow="2"
     inkscape:zoom="1"
     inkscape:cx="410.28747"
     inkscape:cy="82.912537"
     inkscape:document-units="px"
     inkscape:current-layer="g3626"
     showgrid="false"
     inkscape:window-width="1855"
     inkscape:window-height="1056"
     inkscape:window-x="65"
     inkscape:window-y="24"
     inkscape:window-maximized="1" />
  <metadata
     id="metadata3060">
    <rdf:RDF>
      <cc:Work
         rdf:about="">
        <dc:format>image/svg+xml</dc:format>
        <dc:type
           rdf:resource="http://purl.org/dc/dcmitype/StillImage" />
        <dc:title></dc:title>
      </cc:Work>
    </rdf:RDF>
  </metadata>
  <g
     inkscape:label="Layer 1"
     inkscape:groupmode="layer"
     id="layer1"
     transform="translate(0,-636.36218)">
    <g
       id="g3626"
       transform="translate(-35.860933,648.51318)">
      <text
         sodipodi:linespacing="125%"
         id="text3433"
         y="410.36771"
         x="236.10216"
         style="font-size:40px;font-style:normal;font-weight:normal;line-height:125%;letter-spacing:0px;word-spacing:0px;fill:#000000;fill-opacity:1;stroke:none;font-family:Sans"
         xml:space="preserve"><tspan
           y="410.36771"
           x="236.10216"
           id="tspan3435"
           sodipodi:role="line" /><tspan
           y="460.36771"
           x="236.10216"
           id="tspan3437"
           sodipodi:role="line" /></text>
      <g
         id="g6429"
         transform="translate(0,-193.98526)">
        <path
           style="fill:#e8e8e8;fill-opacity:1;stroke:#383838;stroke-width:1.01467502;stroke-linecap:round;stroke-linejoin:round;stroke-miterlimit:4;stroke-opacity:1;stroke-dasharray:none;stroke-dashoffset:0"
           id="rect5327"
           d="m 96.182298,182.75303 461.612572,0 c 4.69438,0 7.82394,1.9511 7.82394,4.87776 l 0,43.89986 c 0,2.92666 -3.12956,4.87776 -7.82394,4.87776 l -461.612572,0 c -4.694365,0 -7.823935,-1.9511 -7.823935,-4.87776 l 0,-43.89986 c 0,-2.92666 3.12957,-4.87776 7.823935,-4.87776 z"
           inkscape:connector-curvature="0" />
        <path
           style="fill:none;stroke:#383838;stroke-width:1.48819005;stroke-linecap:round;stroke-linejoin:round;stroke-miterlimit:4;stroke-opacity:1;stroke-dasharray:none;marker-end:url(#Arrow1Mend)"
           id="path3795"
           d="m 275.08949,288.66795 43.018,0 c 2.83294,0 4.66698,-3.96062 4.66698,-9.90156 l 0,-40.58639"
           inkscape:connector-curvature="0" />
        <path
           style="fill:none;stroke:#383838;stroke-width:1.48819005;stroke-linecap:round;stroke-linejoin:round;stroke-miterlimit:4;stroke-opacity:1;stroke-dasharray:none;marker-end:url(#Arrow1Mend)"
           id="path3795-5"
           d="m 231.99092,222.09467 14.38636,0 c 5.89774,0 9.71593,1.16865 9.71593,2.92165 l 0,43.24037"
           inkscape:connector-curvature="0" />
        <path
           style="fill:none;stroke:#383838;stroke-width:1.48819005;stroke-linecap:round;stroke-linejoin:round;stroke-miterlimit:4;stroke-opacity:1;stroke-dasharray:none;marker-end:url(#Arrow1Mend-6)"
           id="path4451"
           d="m 62.355492,211.81265 23.708332,0"
           inkscape:connector-curvature="0" />
        <path
           style="fill:none;stroke:#383838;stroke-width:1.48819005;stroke-linecap:round;stroke-linejoin:round;stroke-miterlimit:4;stroke-opacity:1;stroke-dasharray:none;marker-end:url(#Arrow1Mend-6)"
           id="path4451-5"
           d="m 239.20418,292.48555 0,40.36505"
           inkscape:connector-curvature="0" />
        <path
           style="fill:#383838;fill-opacity:1;stroke:#383838;stroke-width:0.67645007;stroke-linecap:round;stroke-linejoin:round;stroke-miterlimit:4;stroke-opacity:1;stroke-dasharray:none;stroke-dashoffset:0"
           id="path5407"
           d="m 242.94223,288.74808 a 3.738055,3.7375045 0 0 1 -7.47611,0 3.738055,3.7375045 0 1 1 7.47611,0 z"
           inkscape:connector-curvature="0" />
        <path
           style="fill:#383838;fill-opacity:1;stroke:#383838;stroke-width:0.67645007;stroke-linecap:round;stroke-linejoin:round;stroke-miterlimit:4;stroke-opacity:1;stroke-dasharray:none;stroke-dashoffset:0"
           id="path5407-7"
           d="m 277.99984,288.74808 a 3.7380545,3.737504 0 0 1 -7.4761,0 3.7380545,3.737504 0 1 1 7.4761,0 z"
           inkscape:connector-curvature="0" />
        <path
           style="fill:none;stroke:#383838;stroke-width:1.01467502;stroke-linecap:round;stroke-linejoin:round;stroke-miterlimit:4;stroke-opacity:1;stroke-dasharray:none;stroke-dashoffset:0"
           id="path5435-9"
           d="m 291.80393,288.74807 a 17.46206,17.459489 0 0 1 -34.92412,0 17.46206,17.459489 0 1 1 34.92412,0 z"
           inkscape:connector-curvature="0" />
        <path
           style="fill:none;stroke:#383838;stroke-width:1.01467502;stroke-linecap:round;stroke-linejoin:round;stroke-miterlimit:4;stroke-opacity:1;stroke-dasharray:none;stroke-dashoffset:0"
           id="path5435-9-6"
           d="m 256.66623,288.74807 a 17.46206,17.459489 0 0 1 -34.92412,0 17.46206,17.459489 0 1 1 34.92412,0 z"
           inkscape:connector-curvature="0" />
        <text
           style="font-size:20px;font-style:normal;font-variant:normal;font-weight:normal;font-stretch:normal;text-align:start;line-height:125%;letter-spacing:0px;word-spacing:0px;text-anchor:start;fill:#383838;fill-opacity:1;stroke:none;font-family:Inconsolata LGC;-inkscape-font-specification:Inconsolata LGC"
           xml:space="preserve"
           id="text5493"
           y="226.63509"
           x="94.288368"
           sodipodi:linespacing="125%"><tspan
             style="font-size:18px"
             id="tspan5495"
             y="226.63509"
             x="94.288368">make-account:</tspan></text>
        <text
           xml:space="preserve"
           style="font-size:26.60579491px;font-style:normal;font-weight:normal;line-height:125%;letter-spacing:0px;word-spacing:0px;fill:#000000;fill-opacity:1;stroke:none;font-family:Sans"
           x="74.003204"
           y="320.53052"
           id="text3498"
           sodipodi:linespacing="125%"><tspan
             sodipodi:role="line"
             id="tspan3500"
             x="74.003204"
             y="320.53052"
             style="font-size:15.96347713px">parameters: <tspan
   style="font-size:13.30289745px"
   id="tspan3572">balance</tspan></tspan><tspan
             sodipodi:role="line"
             x="74.003204"
             y="340.48486"
             id="tspan3502"
             style="font-size:15.96347713px">body:</tspan><tspan
             sodipodi:role="line"
             x="74.003204"
             y="356.4613"
             id="tspan3550"
             style="font-size:11.97260761px">(define (withdraw amount) . . . )</tspan><tspan
             sodipodi:role="line"
             x="74.003204"
             y="371.42706"
             id="tspan3556"
             style="font-size:11.97260761px">(define (deposit amount) . . . )</tspan><tspan
             sodipodi:role="line"
             x="74.003204"
             y="386.39282"
             id="tspan3568"
             style="font-size:11.97260761px">(define (dispatch m) . . . )</tspan><tspan
             sodipodi:role="line"
             x="74.003204"
             y="401.35858"
             id="tspan3570"
             style="font-size:11.97260761px">dispatch</tspan></text>
        <text
           sodipodi:linespacing="125%"
           id="text3678"
           y="196.9287"
           x="35.08847"
           style="font-size:40px;font-style:normal;font-weight:normal;line-height:125%;letter-spacing:0px;word-spacing:0px;fill:#000000;fill-opacity:1;stroke:none;font-family:Sans"
           xml:space="preserve"><tspan
             style="font-size:14px"
             y="196.9287"
             x="35.08847"
             id="tspan3680"
             sodipodi:role="line">global</tspan><tspan
             style="font-size:14px"
             id="tspan3682"
             y="214.4287"
             x="35.08847"
             sodipodi:role="line">env</tspan></text>
        <text
           style="font-size:20px;font-style:normal;font-variant:normal;font-weight:normal;font-stretch:normal;text-align:start;line-height:125%;letter-spacing:0px;word-spacing:0px;text-anchor:start;fill:#383838;fill-opacity:1;stroke:none;font-family:Inconsolata LGC;-inkscape-font-specification:Inconsolata LGC"
           xml:space="preserve"
           id="text5493-0"
           y="202.67006"
           x="92.926399"
           sodipodi:linespacing="125%"><tspan
             style="font-size:18px"
             id="tspan5495-7"
             y="202.67006"
             x="92.926399">acc:</tspan></text>
        <path
           style="fill:none;stroke:#383838;stroke-width:1.48819017;stroke-linecap:round;stroke-linejoin:round;stroke-miterlimit:4;stroke-opacity:1;stroke-dasharray:none;marker-end:url(#Arrow1Mend)"
           id="path3795-7"
           d="m 364.2889,431.00345 0,-119.59212 c 0,-7.87571 7.34479,-12.97444 18.36201,-12.97444 l 75.26572,0"
           inkscape:connector-curvature="0" />
        <path
           style="fill:none;stroke:#383838;stroke-width:1.48819005;stroke-linecap:round;stroke-linejoin:round;stroke-miterlimit:4;stroke-opacity:1;stroke-dasharray:none;marker-end:url(#Arrow1Mend-6)"
           id="path4451-5-2"
           d="m 329.38628,432.80383 0,40.36506"
           inkscape:connector-curvature="0" />
        <path
           style="fill:#383838;fill-opacity:1;stroke:#383838;stroke-width:0.67645007;stroke-linecap:round;stroke-linejoin:round;stroke-miterlimit:4;stroke-opacity:1;stroke-dasharray:none;stroke-dashoffset:0"
           id="path5407-5"
           d="m 333.12433,429.06636 a 3.738055,3.7375045 0 0 1 -7.47611,0 3.738055,3.7375045 0 1 1 7.47611,0 z"
           inkscape:connector-curvature="0" />
        <path
           style="fill:#383838;fill-opacity:1;stroke:#383838;stroke-width:0.67645007;stroke-linecap:round;stroke-linejoin:round;stroke-miterlimit:4;stroke-opacity:1;stroke-dasharray:none;stroke-dashoffset:0"
           id="path5407-7-8"
           d="m 368.18194,429.06636 a 3.7380545,3.737504 0 0 1 -7.4761,0 3.7380545,3.737504 0 1 1 7.4761,0 z"
           inkscape:connector-curvature="0" />
        <path
           style="fill:none;stroke:#383838;stroke-width:1.01467502;stroke-linecap:round;stroke-linejoin:round;stroke-miterlimit:4;stroke-opacity:1;stroke-dasharray:none;stroke-dashoffset:0"
           id="path5435-9-1"
           d="m 381.98603,429.06635 a 17.46206,17.459489 0 0 1 -34.92412,0 17.46206,17.459489 0 1 1 34.92412,0 z"
           inkscape:connector-curvature="0" />
        <path
           style="fill:none;stroke:#383838;stroke-width:1.01467502;stroke-linecap:round;stroke-linejoin:round;stroke-miterlimit:4;stroke-opacity:1;stroke-dasharray:none;stroke-dashoffset:0"
           id="path5435-9-6-5"
           d="m 346.84833,429.06635 a 17.46206,17.459489 0 0 1 -34.92412,0 17.46206,17.459489 0 1 1 34.92412,0 z"
           inkscape:connector-curvature="0" />
        <path
           d="m 467.74214,259.61119 107.96888,0 c 3.59896,0 5.99827,7.45356 5.99827,18.6339 l 0,74.53554 c 0,11.18035 -2.39931,18.63393 -5.99827,18.63393 l -107.96888,0 c -3.59897,0 -5.99828,-7.45358 -5.99828,-18.63393 l 0,-74.53554 c 0,-11.18034 2.39931,-18.6339 5.99828,-18.6339 z"
           id="rect5327-2"
           style="fill:#e8e8e8;fill-opacity:1;stroke:#383838;stroke-width:1.01467502;stroke-linecap:round;stroke-linejoin:round;stroke-miterlimit:4;stroke-opacity:1;stroke-dasharray:none;stroke-dashoffset:0;display:inline"
           inkscape:connector-curvature="0" />
        <path
           d="m 447.45513,269.51288 11.88942,0"
           id="path4451-8"
           style="fill:none;stroke:#383838;stroke-width:1.48819005;stroke-linecap:round;stroke-linejoin:round;stroke-miterlimit:4;stroke-opacity:1;stroke-dasharray:none;marker-end:url(#Arrow1Mend-6);display:inline"
           inkscape:connector-curvature="0" />
        <path
           d="m 521.72658,259.6112 0,-21.48202"
           id="path4451-8-3"
           style="fill:none;stroke:#383838;stroke-width:1.48819005;stroke-linecap:round;stroke-linejoin:round;stroke-miterlimit:4;stroke-opacity:1;stroke-dasharray:none;marker-end:url(#Arrow1Mend-6);display:inline"
           inkscape:connector-curvature="0" />
        <text
           transform="scale(1.0025979,0.99740884)"
           x="428.34753"
           y="274.65741"
           id="text6301"
           xml:space="preserve"
           style="font-size:12.53523254px;font-style:normal;font-variant:normal;font-weight:normal;font-stretch:normal;text-align:start;line-height:125%;letter-spacing:0px;word-spacing:0px;text-anchor:start;fill:#383838;fill-opacity:1;stroke:none;display:inline;font-family:Inconsolata LGC;-inkscape-font-specification:Inconsolata LGC"
           sodipodi:linespacing="125%"><tspan
             x="428.34753"
             y="274.65741"
             id="tspan6303">E1</tspan></text>
        <text
           transform="scale(1.0025979,0.99740884)"
           x="503.91745"
           y="277.29617"
           id="text6297"
           xml:space="preserve"
           style="font-size:12.53523254px;font-style:normal;font-variant:normal;font-weight:normal;font-stretch:normal;text-align:center;line-height:125%;letter-spacing:0px;word-spacing:0px;text-anchor:middle;fill:#383838;fill-opacity:1;stroke:none;display:inline;font-family:Inconsolata LGC;-inkscape-font-specification:Inconsolata LGC"
           sodipodi:linespacing="125%"><tspan
             x="503.91745"
             y="277.29617"
             id="tspan6299">balance: 50</tspan></text>
        <text
           transform="scale(1.0025979,0.99740884)"
           x="498.41574"
           y="292.76865"
           id="text6297-1"
           xml:space="preserve"
           style="font-size:12.53523254px;font-style:normal;font-variant:normal;font-weight:normal;font-stretch:normal;text-align:center;line-height:125%;letter-spacing:0px;word-spacing:0px;text-anchor:middle;fill:#383838;fill-opacity:1;stroke:none;display:inline;font-family:Inconsolata LGC;-inkscape-font-specification:Inconsolata LGC"
           sodipodi:linespacing="125%"><tspan
             x="498.41574"
             y="292.76865"
             id="tspan6299-5">withdraw:</tspan></text>
        <text
           transform="scale(1.0025979,0.99740884)"
           x="496.04785"
           y="320.84146"
           id="text6297-1-1"
           xml:space="preserve"
           style="font-size:12.53523254px;font-style:normal;font-variant:normal;font-weight:normal;font-stretch:normal;text-align:center;line-height:125%;letter-spacing:0px;word-spacing:0px;text-anchor:middle;fill:#383838;fill-opacity:1;stroke:none;display:inline;font-family:Inconsolata LGC;-inkscape-font-specification:Inconsolata LGC"
           sodipodi:linespacing="125%"><tspan
             x="496.04785"
             y="320.84146"
             id="tspan6299-5-4">deposit:</tspan></text>
        <text
           transform="scale(1.0025979,0.99740884)"
           x="499.53879"
           y="339.89078"
           id="text6297-1-8"
           xml:space="preserve"
           style="font-size:12.53523254px;font-style:normal;font-variant:normal;font-weight:normal;font-stretch:normal;text-align:center;line-height:125%;letter-spacing:0px;word-spacing:0px;text-anchor:middle;fill:#383838;fill-opacity:1;stroke:none;display:inline;font-family:Inconsolata LGC;-inkscape-font-specification:Inconsolata LGC"
           sodipodi:linespacing="125%"><tspan
             x="499.53879"
             y="339.89078"
             id="tspan6299-5-7">dispatch:</tspan></text>
        <path
           style="fill:none;stroke:#383838;stroke-width:1.48819017;stroke-linecap:round;stroke-linejoin:round;stroke-miterlimit:4;stroke-opacity:1;stroke-dasharray:none;marker-end:url(#Arrow1Mend)"
           id="path3795-5-1-1"
           d="m 467.81937,288.76848 -72.5282,0 c -29.73317,0 -48.98241,2.99972 -48.98241,7.49945 l 0,110.99214"
           inkscape:connector-curvature="0" />
        <text
           xml:space="preserve"
           style="font-size:26.60579491px;font-style:normal;font-weight:normal;line-height:125%;letter-spacing:0px;word-spacing:0px;fill:#000000;fill-opacity:1;stroke:none;font-family:Sans"
           x="232.13852"
           y="485.29413"
           id="text3498-5"
           sodipodi:linespacing="125%"><tspan
             sodipodi:role="line"
             id="tspan3500-7"
             x="232.13852"
             y="485.29413"
             style="font-size:15.96347713px">parameters: amount</tspan><tspan
             sodipodi:role="line"
             x="232.13852"
             y="505.24847"
             id="tspan3502-3"
             style="font-size:15.96347713px">body:</tspan><tspan
             id="tspan6048"
             sodipodi:role="line"
             x="232.13852"
             y="521.25226"
             style="font-size:12px">(if (&gt;= balance amount)</tspan><tspan
             id="tspan6050"
             sodipodi:role="line"
             x="232.13852"
             y="536.25226"
             style="font-size:12px">    (begin (set! balance </tspan><tspan
             id="tspan6052"
             sodipodi:role="line"
             x="232.13852"
             y="551.25226"
             style="font-size:12px">                 (- balance </tspan><tspan
             id="tspan6054"
             sodipodi:role="line"
             x="232.13852"
             y="566.25226"
             style="font-size:12px">                    amount))</tspan><tspan
             id="tspan6056"
             sodipodi:role="line"
             x="232.13852"
             y="581.25226"
             style="font-size:12px">           balance)</tspan><tspan
             id="tspan6058"
             sodipodi:role="line"
             x="232.13852"
             y="596.25226"
             style="font-size:12px">    &quot;Insufficient funds&quot;)</tspan><tspan
             id="tspan6060"
             sodipodi:role="line"
             x="232.13852"
             y="611.25226"
             style="font-size:15.96347713px" /><tspan
             sodipodi:role="line"
             x="232.13852"
             y="626.25226"
             id="tspan3570-7"
             style="font-size:11.97260761px" /></text>
        <path
           style="fill:none;stroke:#383838;stroke-width:1.48819017;stroke-linecap:round;stroke-linejoin:round;stroke-miterlimit:4;stroke-opacity:1;stroke-dasharray:none;marker-end:url(#Arrow1Mend)"
           id="path3795-7-4"
           d="m 458.58533,429.70961 30.23262,0 c 1.99096,0 3.27991,-4.55398 3.27991,-11.38497 l 0,-46.66687"
           inkscape:connector-curvature="0" />
        <path
           style="fill:none;stroke:#383838;stroke-width:1.48819005;stroke-linecap:round;stroke-linejoin:round;stroke-miterlimit:4;stroke-opacity:1;stroke-dasharray:none;marker-end:url(#Arrow1Mend-6)"
           id="path4451-5-2-3"
           d="m 422.89622,433.72351 0,40.36506"
           inkscape:connector-curvature="0" />
        <path
           style="fill:#383838;fill-opacity:1;stroke:#383838;stroke-width:0.67645007;stroke-linecap:round;stroke-linejoin:round;stroke-miterlimit:4;stroke-opacity:1;stroke-dasharray:none;stroke-dashoffset:0"
           id="path5407-5-8"
           d="m 426.63427,429.98604 a 3.738055,3.7375045 0 0 1 -7.47611,0 3.738055,3.7375045 0 1 1 7.47611,0 z"
           inkscape:connector-curvature="0" />
        <path
           style="fill:#383838;fill-opacity:1;stroke:#383838;stroke-width:0.67645007;stroke-linecap:round;stroke-linejoin:round;stroke-miterlimit:4;stroke-opacity:1;stroke-dasharray:none;stroke-dashoffset:0"
           id="path5407-7-8-5"
           d="m 461.69188,429.98604 a 3.7380545,3.737504 0 0 1 -7.4761,0 3.7380545,3.737504 0 1 1 7.4761,0 z"
           inkscape:connector-curvature="0" />
        <path
           style="fill:none;stroke:#383838;stroke-width:1.01467502;stroke-linecap:round;stroke-linejoin:round;stroke-miterlimit:4;stroke-opacity:1;stroke-dasharray:none;stroke-dashoffset:0"
           id="path5435-9-1-8"
           d="m 475.49597,429.98603 a 17.46206,17.459489 0 0 1 -34.92412,0 17.46206,17.459489 0 1 1 34.92412,0 z"
           inkscape:connector-curvature="0" />
        <path
           style="fill:none;stroke:#383838;stroke-width:1.01467502;stroke-linecap:round;stroke-linejoin:round;stroke-miterlimit:4;stroke-opacity:1;stroke-dasharray:none;stroke-dashoffset:0"
           id="path5435-9-6-5-0"
           d="m 440.35827,429.98603 a 17.46206,17.459489 0 0 1 -34.92412,0 17.46206,17.459489 0 1 1 34.92412,0 z"
           inkscape:connector-curvature="0" />
        <path
           style="fill:none;stroke:#383838;stroke-width:1.48819017;stroke-linecap:round;stroke-linejoin:round;stroke-miterlimit:4;stroke-opacity:1;stroke-dasharray:none;marker-end:url(#Arrow1Mend)"
           id="path3795-5-1-1-6"
           d="m 469.3293,315.68816 -18.18242,0 c -7.45395,0 -12.27963,2.42289 -12.27963,6.05734 l 0,89.64888"
           inkscape:connector-curvature="0" />
        <text
           xml:space="preserve"
           style="font-size:26.60579491px;font-style:normal;font-weight:normal;line-height:125%;letter-spacing:0px;word-spacing:0px;fill:#000000;fill-opacity:1;stroke:none;font-family:Sans"
           x="409.64847"
           y="486.21381"
           id="text3498-5-6"
           sodipodi:linespacing="125%"><tspan
             sodipodi:role="line"
             id="tspan3500-7-6"
             x="409.64847"
             y="486.21381"
             style="font-size:15.96347713px">parameters: amount</tspan><tspan
             sodipodi:role="line"
             x="409.64847"
             y="506.16815"
             id="tspan3502-3-6"
             style="font-size:15.96347713px">body:</tspan><tspan
             id="tspan6058-4"
             sodipodi:role="line"
             x="409.64847"
             y="522.17194"
             style="font-size:12px">(set! balance (+ balance amount))</tspan><tspan
             id="tspan6300"
             sodipodi:role="line"
             x="409.64847"
             y="537.17194"
             style="font-size:12px">balance</tspan><tspan
             id="tspan6060-7"
             sodipodi:role="line"
             x="409.64847"
             y="552.17194"
             style="font-size:15.96347713px" /><tspan
             sodipodi:role="line"
             x="409.64847"
             y="567.17194"
             id="tspan3570-7-1"
             style="font-size:11.97260761px" /></text>
        <path
           style="fill:none;stroke:#383838;stroke-width:1.48819005;stroke-linecap:round;stroke-linejoin:round;stroke-miterlimit:4;stroke-opacity:1;stroke-dasharray:none;marker-end:url(#Arrow1Mend)"
           id="path3795-8"
           d="m 719.50373,374.25977 0,-68.68031 c 0,-4.52293 -10.42068,-7.45106 -26.05172,-7.45106 l -106.78571,0"
           inkscape:connector-curvature="0" />
        <path
           style="fill:none;stroke:#383838;stroke-width:1.48818994;stroke-linecap:round;stroke-linejoin:round;stroke-miterlimit:4;stroke-opacity:1;stroke-dasharray:none;marker-end:url(#Arrow1Mend)"
           id="path3795-5-8"
           d="m 533.45848,336.3439 102.29435,0 c 41.93597,0 69.08523,0.45682 69.08523,1.14206 l 0,16.90245"
           inkscape:connector-curvature="0" />
        <path
           style="fill:none;stroke:#383838;stroke-width:1.48819005;stroke-linecap:round;stroke-linejoin:round;stroke-miterlimit:4;stroke-opacity:1;stroke-dasharray:none;marker-end:url(#Arrow1Mend-6)"
           id="path4451-5-9"
           d="m 684.67176,378.73477 0,40.36506"
           inkscape:connector-curvature="0" />
        <path
           style="fill:#383838;fill-opacity:1;stroke:#383838;stroke-width:0.67645007;stroke-linecap:round;stroke-linejoin:round;stroke-miterlimit:4;stroke-opacity:1;stroke-dasharray:none;stroke-dashoffset:0"
           id="path5407-9"
           d="m 688.40981,374.9973 a 3.738055,3.7375045 0 0 1 -7.47611,0 3.738055,3.7375045 0 1 1 7.47611,0 z"
           inkscape:connector-curvature="0" />
        <path
           style="fill:#383838;fill-opacity:1;stroke:#383838;stroke-width:0.67645007;stroke-linecap:round;stroke-linejoin:round;stroke-miterlimit:4;stroke-opacity:1;stroke-dasharray:none;stroke-dashoffset:0"
           id="path5407-7-81"
           d="m 723.46742,374.9973 a 3.7380545,3.737504 0 0 1 -7.4761,0 3.7380545,3.737504 0 1 1 7.4761,0 z"
           inkscape:connector-curvature="0" />
        <path
           style="fill:none;stroke:#383838;stroke-width:1.01467502;stroke-linecap:round;stroke-linejoin:round;stroke-miterlimit:4;stroke-opacity:1;stroke-dasharray:none;stroke-dashoffset:0"
           id="path5435-9-61"
           d="m 737.27151,374.99729 a 17.46206,17.459489 0 0 1 -34.92412,0 17.46206,17.459489 0 1 1 34.92412,0 z"
           inkscape:connector-curvature="0" />
        <path
           style="fill:none;stroke:#383838;stroke-width:1.01467502;stroke-linecap:round;stroke-linejoin:round;stroke-miterlimit:4;stroke-opacity:1;stroke-dasharray:none;stroke-dashoffset:0"
           id="path5435-9-6-8"
           d="m 702.13381,374.99729 a 17.46206,17.459489 0 0 1 -34.92412,0 17.46206,17.459489 0 1 1 34.92412,0 z"
           inkscape:connector-curvature="0" />
        <text
           xml:space="preserve"
           style="font-size:26.60579491px;font-style:normal;font-weight:normal;line-height:125%;letter-spacing:0px;word-spacing:0px;fill:#000000;fill-opacity:1;stroke:none;font-family:Sans"
           x="551.47083"
           y="401.77972"
           id="text3498-9"
           sodipodi:linespacing="125%"><tspan
             sodipodi:role="line"
             id="tspan3500-9"
             x="551.47083"
             y="401.77972"
             style="font-size:15.96347713px">parameters: m</tspan><tspan
             sodipodi:role="line"
             x="551.47083"
             y="421.73407"
             id="tspan3502-9"
             style="font-size:15.96347713px">body:</tspan><tspan
             id="tspan6391"
             sodipodi:role="line"
             x="551.47083"
             y="438.73459"
             style="font-size:13px">(cond ((eq? m 'withdraw) withdraw)</tspan><tspan
             id="tspan6393"
             sodipodi:role="line"
             x="551.47083"
             y="454.98459"
             style="font-size:13px">          ((eq? m 'deposit) deposit)</tspan><tspan
             id="tspan6395"
             sodipodi:role="line"
             x="551.47083"
             y="471.23459"
             style="font-size:13px">          (else (error &quot;Unknown request: </tspan><tspan
             id="tspan6397"
             sodipodi:role="line"
             x="551.47083"
             y="487.48459"
             style="font-size:13px">                              MAKE-ACCOUNT&quot; </tspan><tspan
             id="tspan6399"
             sodipodi:role="line"
             x="551.47083"
             y="503.73459"
             style="font-size:13px">                             m)))</tspan><tspan
             sodipodi:role="line"
             x="551.47083"
             y="519.98456"
             id="tspan3570-79"
             style="font-size:11.97260761px" /></text>
        <path
           style="fill:none;stroke:#383838;stroke-width:1.48819005;stroke-linecap:round;stroke-linejoin:round;stroke-miterlimit:4;stroke-opacity:1;stroke-dasharray:none;marker-end:url(#Arrow1Mend)"
           id="path3795-5-7"
           d="m 132.50761,198.20992 338.61547,0 c 138.81663,0 228.68635,3.9371 228.68635,9.84289 l 0,145.67503"
           inkscape:connector-curvature="0" />
      </g>
    </g>
  </g>
</svg>
