<?xml version="1.0" encoding="UTF-8" standalone="no"?>
<!-- Created with Inkscape (http://www.inkscape.org/) -->

<svg
   xmlns:dc="http://purl.org/dc/elements/1.1/"
   xmlns:cc="http://creativecommons.org/ns#"
   xmlns:rdf="http://www.w3.org/1999/02/22-rdf-syntax-ns#"
   xmlns:svg="http://www.w3.org/2000/svg"
   xmlns="http://www.w3.org/2000/svg"
   xmlns:sodipodi="http://sodipodi.sourceforge.net/DTD/sodipodi-0.dtd"
   xmlns:inkscape="http://www.inkscape.org/namespaces/inkscape"
   width="1104"
   height="590"
   id="svg3292"
   version="1.1"
   inkscape:version="0.48.4 r9939"
   sodipodi:docname="Ex3_10_Step4.svg">
  <defs
     id="defs3294">
    <marker
       refX="0"
       refY="0"
       orient="auto"
       id="Arrow1Mend-6"
       style="overflow:visible">
      <path
         inkscape:connector-curvature="0"
         d="M 0,0 5,-5 -12.5,0 5,5 0,0 z"
         transform="matrix(-0.4,0,0,-0.4,-4,0)"
         id="path3809-6-2"
         style="fill:#383838;fill-rule:evenodd;stroke:#383838;stroke-width:1pt;marker-start:none" />
    </marker>
    <marker
       refX="0"
       refY="0"
       orient="auto"
       id="Arrow1Mend"
       style="overflow:visible">
      <path
         inkscape:connector-curvature="0"
         d="M 0,0 5,-5 -12.5,0 5,5 0,0 z"
         transform="matrix(-0.4,0,0,-0.4,-4,0)"
         id="path3809"
         style="fill:#383838;fill-rule:evenodd;stroke:#383838;stroke-width:1pt;marker-start:none" />
    </marker>
    <marker
       refX="0"
       refY="0"
       orient="auto"
       id="Arrow1Mend-6-8"
       style="overflow:visible">
      <path
         inkscape:connector-curvature="0"
         d="M 0,0 5,-5 -12.5,0 5,5 0,0 z"
         transform="matrix(-0.4,0,0,-0.4,-4,0)"
         id="path3809-6-2-6"
         style="fill:#383838;fill-rule:evenodd;stroke:#383838;stroke-width:1pt;marker-start:none" />
    </marker>
    <marker
       refX="0"
       refY="0"
       orient="auto"
       id="marker3399"
       style="overflow:visible">
      <path
         inkscape:connector-curvature="0"
         d="M 0,0 5,-5 -12.5,0 5,5 0,0 z"
         transform="matrix(-0.4,0,0,-0.4,-4,0)"
         id="path3401"
         style="fill:#383838;fill-rule:evenodd;stroke:#383838;stroke-width:1pt;marker-start:none" />
    </marker>
    <marker
       refX="0"
       refY="0"
       orient="auto"
       id="Arrow1Mend-6-9"
       style="overflow:visible">
      <path
         inkscape:connector-curvature="0"
         d="M 0,0 5,-5 -12.5,0 5,5 0,0 z"
         transform="matrix(-0.4,0,0,-0.4,-4,0)"
         id="path3809-6-2-3"
         style="fill:#383838;fill-rule:evenodd;stroke:#383838;stroke-width:1pt;marker-start:none" />
    </marker>
    <marker
       refX="0"
       refY="0"
       orient="auto"
       id="marker3266"
       style="overflow:visible">
      <path
         inkscape:connector-curvature="0"
         d="M 0,0 5,-5 -12.5,0 5,5 0,0 z"
         transform="matrix(-0.4,0,0,-0.4,-4,0)"
         id="path3268"
         style="fill:#383838;fill-rule:evenodd;stroke:#383838;stroke-width:1pt;marker-start:none" />
    </marker>
    <marker
       refX="0"
       refY="0"
       orient="auto"
       id="marker3270"
       style="overflow:visible">
      <path
         inkscape:connector-curvature="0"
         d="M 0,0 5,-5 -12.5,0 5,5 0,0 z"
         transform="matrix(-0.4,0,0,-0.4,-4,0)"
         id="path3272"
         style="fill:#383838;fill-rule:evenodd;stroke:#383838;stroke-width:1pt;marker-start:none" />
    </marker>
    <marker
       refX="0"
       refY="0"
       orient="auto"
       id="marker3274"
       style="overflow:visible">
      <path
         inkscape:connector-curvature="0"
         d="M 0,0 5,-5 -12.5,0 5,5 0,0 z"
         transform="matrix(-0.4,0,0,-0.4,-4,0)"
         id="path3276"
         style="fill:#383838;fill-rule:evenodd;stroke:#383838;stroke-width:1pt;marker-start:none" />
    </marker>
    <marker
       refX="0"
       refY="0"
       orient="auto"
       id="Arrow1Mend-4"
       style="overflow:visible">
      <path
         inkscape:connector-curvature="0"
         d="M 0,0 5,-5 -12.5,0 5,5 0,0 z"
         transform="matrix(-0.4,0,0,-0.4,-4,0)"
         id="path3809-5"
         style="fill:#383838;fill-rule:evenodd;stroke:#383838;stroke-width:1pt;marker-start:none" />
    </marker>
    <marker
       refX="0"
       refY="0"
       orient="auto"
       id="marker3280"
       style="overflow:visible">
      <path
         inkscape:connector-curvature="0"
         d="M 0,0 5,-5 -12.5,0 5,5 0,0 z"
         transform="matrix(-0.4,0,0,-0.4,-4,0)"
         id="path3282"
         style="fill:#383838;fill-rule:evenodd;stroke:#383838;stroke-width:1pt;marker-start:none" />
    </marker>
    <marker
       refX="0"
       refY="0"
       orient="auto"
       id="Arrow1Mend-6-3"
       style="overflow:visible">
      <path
         inkscape:connector-curvature="0"
         d="M 0,0 5,-5 -12.5,0 5,5 0,0 z"
         transform="matrix(-0.4,0,0,-0.4,-4,0)"
         id="path3809-6-2-9"
         style="fill:#383838;fill-rule:evenodd;stroke:#383838;stroke-width:1pt;marker-start:none" />
    </marker>
    <marker
       refX="0"
       refY="0"
       orient="auto"
       id="Arrow1Mend-1"
       style="overflow:visible">
      <path
         inkscape:connector-curvature="0"
         d="M 0,0 5,-5 -12.5,0 5,5 0,0 z"
         transform="matrix(-0.4,0,0,-0.4,-4,0)"
         id="path3809-9"
         style="fill:#383838;fill-rule:evenodd;stroke:#383838;stroke-width:1pt;marker-start:none" />
    </marker>
    <marker
       refX="0"
       refY="0"
       orient="auto"
       id="Arrow1Mend-6-1"
       style="overflow:visible">
      <path
         inkscape:connector-curvature="0"
         d="M 0,0 5,-5 -12.5,0 5,5 0,0 z"
         transform="matrix(-0.4,0,0,-0.4,-4,0)"
         id="path3809-6-2-64"
         style="fill:#383838;fill-rule:evenodd;stroke:#383838;stroke-width:1pt;marker-start:none" />
    </marker>
    <marker
       refX="0"
       refY="0"
       orient="auto"
       id="marker7252"
       style="overflow:visible">
      <path
         inkscape:connector-curvature="0"
         d="M 0,0 5,-5 -12.5,0 5,5 0,0 z"
         transform="matrix(-0.4,0,0,-0.4,-4,0)"
         id="path7254"
         style="fill:#383838;fill-rule:evenodd;stroke:#383838;stroke-width:1pt;marker-start:none" />
    </marker>
    <marker
       refX="0"
       refY="0"
       orient="auto"
       id="marker7256"
       style="overflow:visible">
      <path
         inkscape:connector-curvature="0"
         d="M 0,0 5,-5 -12.5,0 5,5 0,0 z"
         transform="matrix(-0.4,0,0,-0.4,-4,0)"
         id="path7258"
         style="fill:#383838;fill-rule:evenodd;stroke:#383838;stroke-width:1pt;marker-start:none" />
    </marker>
    <marker
       refX="0"
       refY="0"
       orient="auto"
       id="marker7260"
       style="overflow:visible">
      <path
         inkscape:connector-curvature="0"
         d="M 0,0 5,-5 -12.5,0 5,5 0,0 z"
         transform="matrix(-0.4,0,0,-0.4,-4,0)"
         id="path7262"
         style="fill:#383838;fill-rule:evenodd;stroke:#383838;stroke-width:1pt;marker-start:none" />
    </marker>
    <marker
       refX="0"
       refY="0"
       orient="auto"
       id="marker7264"
       style="overflow:visible">
      <path
         inkscape:connector-curvature="0"
         d="M 0,0 5,-5 -12.5,0 5,5 0,0 z"
         transform="matrix(-0.4,0,0,-0.4,-4,0)"
         id="path7266"
         style="fill:#383838;fill-rule:evenodd;stroke:#383838;stroke-width:1pt;marker-start:none" />
    </marker>
    <marker
       refX="0"
       refY="0"
       orient="auto"
       id="marker7268"
       style="overflow:visible">
      <path
         inkscape:connector-curvature="0"
         d="M 0,0 5,-5 -12.5,0 5,5 0,0 z"
         transform="matrix(-0.4,0,0,-0.4,-4,0)"
         id="path7270"
         style="fill:#383838;fill-rule:evenodd;stroke:#383838;stroke-width:1pt;marker-start:none" />
    </marker>
    <marker
       refX="0"
       refY="0"
       orient="auto"
       id="Arrow1Mend-7"
       style="overflow:visible">
      <path
         inkscape:connector-curvature="0"
         d="M 0,0 5,-5 -12.5,0 5,5 0,0 z"
         transform="matrix(-0.4,0,0,-0.4,-4,0)"
         id="path3809-0"
         style="fill:#383838;fill-rule:evenodd;stroke:#383838;stroke-width:1pt;marker-start:none" />
    </marker>
  </defs>
  <sodipodi:namedview
     id="base"
     pagecolor="#ffffff"
     bordercolor="#666666"
     borderopacity="1.0"
     inkscape:pageopacity="0.0"
     inkscape:pageshadow="2"
     inkscape:zoom="0.7"
     inkscape:cx="647.67487"
     inkscape:cy="215.13816"
     inkscape:document-units="px"
     inkscape:current-layer="layer1"
     showgrid="false"
     inkscape:window-width="1301"
     inkscape:window-height="744"
     inkscape:window-x="1985"
     inkscape:window-y="336"
     inkscape:window-maximized="1" />
  <metadata
     id="metadata3297">
    <rdf:RDF>
      <cc:Work
         rdf:about="">
        <dc:format>image/svg+xml</dc:format>
        <dc:type
           rdf:resource="http://purl.org/dc/dcmitype/StillImage" />
        <dc:title></dc:title>
      </cc:Work>
    </rdf:RDF>
  </metadata>
  <g
     inkscape:label="Layer 1"
     inkscape:groupmode="layer"
     id="layer1"
     transform="translate(0,-462.36218)">
    <g
       id="g7398"
       transform="translate(-2.0000001,4.7918675)">
      <path
         d="m 93.846571,459.05523 994.282929,0 c 10.1114,0 16.8522,4.90909 16.8522,12.27273 l 0,110.45459 c 0,7.36365 -6.7408,12.27274 -16.8522,12.27274 l -994.282929,0 c -10.111357,0 -16.85225,-4.90909 -16.85225,-12.27274 l 0,-110.45459 c 0,-7.36364 6.740893,-12.27273 16.85225,-12.27273 z"
         id="rect5327"
         style="fill:#e8e8e8;fill-opacity:1;stroke:#383838;stroke-width:1.01467502;stroke-linecap:round;stroke-linejoin:round;stroke-miterlimit:4;stroke-opacity:1;stroke-dasharray:none;stroke-dashoffset:0;display:inline"
         inkscape:connector-curvature="0" />
      <path
         d="m 29.267019,565.41892 43.909126,0"
         id="path4451"
         style="fill:none;stroke:#383838;stroke-width:1.48819005;stroke-linecap:round;stroke-linejoin:round;stroke-miterlimit:4;stroke-opacity:1;stroke-dasharray:none;marker-end:url(#Arrow1Mend-6);display:inline"
         inkscape:connector-curvature="0" />
      <text
         x="95.630722"
         y="575.80853"
         id="text5493"
         xml:space="preserve"
         style="font-size:20px;font-style:normal;font-variant:normal;font-weight:normal;font-stretch:normal;text-align:start;line-height:125%;letter-spacing:0px;word-spacing:0px;text-anchor:start;fill:#383838;fill-opacity:1;stroke:none;display:inline;font-family:Inconsolata LGC;-inkscape-font-specification:Inconsolata LGC"
         sodipodi:linespacing="125%"><tspan
           x="95.630722"
           y="575.80853"
           id="tspan5495">make-withdraw: </tspan></text>
      <text
         x="0.63063657"
         y="527.23712"
         id="text5477"
         xml:space="preserve"
         style="font-size:20px;font-style:normal;font-variant:normal;font-weight:normal;font-stretch:normal;text-align:start;line-height:120.00000477%;letter-spacing:0px;word-spacing:0px;text-anchor:start;fill:#383838;fill-opacity:1;stroke:none;display:inline;font-family:Inconsolata LGC;-inkscape-font-specification:Inconsolata LGC"
         sodipodi:linespacing="120%"><tspan
           x="0.63063657"
           y="527.23712"
           id="tspan5479"
           style="font-size:24.81819916px;font-style:normal;font-variant:normal;font-weight:normal;font-stretch:normal;line-height:120.00000477%;font-family:Linux Biolinum O;-inkscape-font-specification:Linux Biolinum O">global</tspan><tspan
           x="0.63063657"
           y="557.01892"
           id="tspan5507"
           style="font-size:24.81819916px;font-style:normal;font-variant:normal;font-weight:normal;font-stretch:normal;line-height:120.00000477%;font-family:Linux Biolinum O;-inkscape-font-specification:Linux Biolinum O">env</tspan></text>
      <path
         d="m 315.31588,697.50619 89.55688,0 c 5.89774,0 9.71592,-7.81692 9.71592,-19.54233 l 0,-80.10377"
         id="path3795"
         style="fill:none;stroke:#383838;stroke-width:1.48819017;stroke-linecap:round;stroke-linejoin:round;stroke-miterlimit:4;stroke-opacity:1;stroke-dasharray:none;marker-end:url(#Arrow1Mend);display:inline"
         inkscape:connector-curvature="0" />
      <path
         d="m 267.58858,569.49627 14.38636,0 c 5.89774,0 9.71593,2.59756 9.71593,6.4939 l 0,96.10979"
         id="path3795-5"
         style="fill:none;stroke:#383838;stroke-width:1.48819005;stroke-linecap:round;stroke-linejoin:round;stroke-miterlimit:4;stroke-opacity:1;stroke-dasharray:none;marker-end:url(#Arrow1Mend);display:inline"
         inkscape:connector-curvature="0" />
      <path
         d="m 269.49767,702.38121 0,51.54549"
         id="path4451-5"
         style="fill:none;stroke:#383838;stroke-width:1.48819005;stroke-linecap:round;stroke-linejoin:round;stroke-miterlimit:4;stroke-opacity:1;stroke-dasharray:none;marker-end:url(#Arrow1Mend-6);display:inline"
         inkscape:connector-curvature="0" />
      <path
         d="m 274.2704,697.60852 a 4.7727307,4.7727307 0 0 1 -9.54546,0 4.7727307,4.7727307 0 1 1 9.54546,0 z"
         id="path5407"
         style="fill:#383838;fill-opacity:1;stroke:#383838;stroke-width:0.67645007;stroke-linecap:round;stroke-linejoin:round;stroke-miterlimit:4;stroke-opacity:1;stroke-dasharray:none;stroke-dashoffset:0;display:inline"
         inkscape:connector-curvature="0" />
      <path
         d="m 319.0318,697.60852 a 4.7727307,4.7727307 0 0 1 -9.54546,0 4.7727307,4.7727307 0 1 1 9.54546,0 z"
         id="path5407-7"
         style="fill:#383838;fill-opacity:1;stroke:#383838;stroke-width:0.67645007;stroke-linecap:round;stroke-linejoin:round;stroke-miterlimit:4;stroke-opacity:1;stroke-dasharray:none;stroke-dashoffset:0;display:inline"
         inkscape:connector-curvature="0" />
      <path
         d="m 336.65679,697.6085 a 22.295475,22.295475 0 0 1 -44.59095,0 22.295475,22.295475 0 1 1 44.59095,0 z"
         id="path5435-9"
         style="fill:none;stroke:#383838;stroke-width:1.01467502;stroke-linecap:round;stroke-linejoin:round;stroke-miterlimit:4;stroke-opacity:1;stroke-dasharray:none;stroke-dashoffset:0;display:inline"
         inkscape:connector-curvature="0" />
      <path
         d="m 291.79314,697.60851 a 22.29548,22.29548 0 0 1 -44.59096,0 22.29548,22.29548 0 1 1 44.59096,0 z"
         id="path5435-9-6"
         style="fill:none;stroke:#383838;stroke-width:1.01467502;stroke-linecap:round;stroke-linejoin:round;stroke-miterlimit:4;stroke-opacity:1;stroke-dasharray:none;stroke-dashoffset:0;display:inline"
         inkscape:connector-curvature="0" />
      <text
         sodipodi:linespacing="125%"
         id="text3471"
         y="769.0658"
         x="25.628504"
         style="font-size:40px;font-style:normal;font-weight:normal;line-height:125%;letter-spacing:0px;word-spacing:0px;fill:#000000;fill-opacity:1;stroke:none;font-family:Sans"
         xml:space="preserve"><tspan
           style="font-size:20px"
           y="769.0658"
           x="25.628504"
           id="tspan3473"
           sodipodi:role="line">parameters: initial-amount</tspan><tspan
           style="font-size:20px"
           id="tspan3475"
           y="794.0658"
           x="25.628504"
           sodipodi:role="line">body: </tspan><tspan
           style="font-size:20px"
           id="tspan3491"
           y="819.0658"
           x="25.628504"
           sodipodi:role="line">((lambda (balance)</tspan><tspan
           style="font-size:20px"
           id="tspan3477"
           y="844.0658"
           x="25.628504"
           sodipodi:role="line">    (lambda (amount)</tspan><tspan
           style="font-size:20px"
           id="tspan3479"
           y="869.0658"
           x="25.628504"
           sodipodi:role="line">      (if (&gt;= balance amount)</tspan><tspan
           style="font-size:20px"
           id="tspan3481"
           y="894.0658"
           x="25.628504"
           sodipodi:role="line">          (begin (set! balance </tspan><tspan
           style="font-size:20px"
           id="tspan3483"
           y="919.0658"
           x="25.628504"
           sodipodi:role="line">                       (- balance amount))</tspan><tspan
           style="font-size:20px"
           id="tspan3485"
           y="944.0658"
           x="25.628504"
           sodipodi:role="line">                 balance)</tspan><tspan
           style="font-size:20px"
           id="tspan3487"
           y="969.0658"
           x="25.628504"
           sodipodi:role="line">                 &quot;Insufficient funds&quot;)))</tspan><tspan
           style="font-size:20px"
           id="tspan3489"
           y="994.0658"
           x="25.628504"
           sodipodi:role="line">    initial-amount))</tspan></text>
      <path
         d="m 485.99523,834.0015 89.55688,0 c 5.89774,0 9.71592,-3.8182 9.71592,-9.5455 l 0,-39.12669"
         id="path3795-0"
         style="fill:none;stroke:#383838;stroke-width:1.48819005;stroke-linecap:round;stroke-linejoin:round;stroke-miterlimit:4;stroke-opacity:1;stroke-dasharray:none;marker-end:url(#Arrow1Mend);display:inline"
         inkscape:connector-curvature="0" />
      <path
         d="m 145.2375,533.47595 185.81392,0 c 76.17508,0 125.49074,7.03757 125.49074,17.59393 l 0,260.39009"
         id="path3795-5-5"
         style="fill:none;stroke:#383838;stroke-width:1.48819005;stroke-linecap:round;stroke-linejoin:round;stroke-miterlimit:4;stroke-opacity:1;stroke-dasharray:none;marker-end:url(#Arrow1Mend);display:inline"
         inkscape:connector-curvature="0" />
      <path
         d="m 440.17702,838.8765 0,31.77065"
         id="path4451-5-4"
         style="fill:none;stroke:#383838;stroke-width:1.48819005;stroke-linecap:round;stroke-linejoin:round;stroke-miterlimit:4;stroke-opacity:1;stroke-dasharray:none;marker-end:url(#Arrow1Mend-6);display:inline"
         inkscape:connector-curvature="0" />
      <path
         d="m 444.94975,834.1038 a 4.7727307,4.7727307 0 0 1 -9.54546,0 4.7727307,4.7727307 0 1 1 9.54546,0 z"
         id="path5407-2"
         style="fill:#383838;fill-opacity:1;stroke:#383838;stroke-width:0.67645007;stroke-linecap:round;stroke-linejoin:round;stroke-miterlimit:4;stroke-opacity:1;stroke-dasharray:none;stroke-dashoffset:0;display:inline"
         inkscape:connector-curvature="0" />
      <path
         d="m 489.71115,834.1038 a 4.7727307,4.7727307 0 0 1 -9.54546,0 4.7727307,4.7727307 0 1 1 9.54546,0 z"
         id="path5407-7-3"
         style="fill:#383838;fill-opacity:1;stroke:#383838;stroke-width:0.67645007;stroke-linecap:round;stroke-linejoin:round;stroke-miterlimit:4;stroke-opacity:1;stroke-dasharray:none;stroke-dashoffset:0;display:inline"
         inkscape:connector-curvature="0" />
      <path
         d="m 507.33614,834.1038 a 22.295475,22.295475 0 0 1 -44.59095,0 22.295475,22.295475 0 1 1 44.59095,0 z"
         id="path5435-9-5"
         style="fill:none;stroke:#383838;stroke-width:1.01467502;stroke-linecap:round;stroke-linejoin:round;stroke-miterlimit:4;stroke-opacity:1;stroke-dasharray:none;stroke-dashoffset:0;display:inline"
         inkscape:connector-curvature="0" />
      <path
         d="m 462.47249,834.1038 a 22.295475,22.295475 0 0 1 -44.59095,0 22.295475,22.295475 0 1 1 44.59095,0 z"
         id="path5435-9-6-6"
         style="fill:none;stroke:#383838;stroke-width:1.01467502;stroke-linecap:round;stroke-linejoin:round;stroke-miterlimit:4;stroke-opacity:1;stroke-dasharray:none;stroke-dashoffset:0;display:inline"
         inkscape:connector-curvature="0" />
      <path
         d="m 543.88527,630.29418 171.8183,0 c 5.72728,0 9.54546,3.81818 9.54546,9.54546 l 0,38.18184 c 0,5.72728 -3.81818,9.54547 -9.54546,9.54547 l -171.8183,0 c -5.72728,0 -9.54547,-3.81819 -9.54547,-9.54547 l 0,-38.18184 c 0,-5.72728 3.81819,-9.54546 9.54547,-9.54546 z"
         id="rect5327-2"
         style="fill:#e8e8e8;fill-opacity:1;stroke:#383838;stroke-width:1.01467502;stroke-linecap:round;stroke-linejoin:round;stroke-miterlimit:4;stroke-opacity:1;stroke-dasharray:none;stroke-dashoffset:0;display:inline"
         inkscape:connector-curvature="0" />
      <path
         d="m 511.60116,658.93056 18.92046,0"
         id="path4451-8"
         style="fill:none;stroke:#383838;stroke-width:1.48819005;stroke-linecap:round;stroke-linejoin:round;stroke-miterlimit:4;stroke-opacity:1;stroke-dasharray:none;marker-end:url(#Arrow1Mend-6);display:inline"
         inkscape:connector-curvature="0" />
      <path
         d="m 629.79442,630.29418 0,-34.36367"
         id="path4451-8-3"
         style="fill:none;stroke:#383838;stroke-width:1.48819005;stroke-linecap:round;stroke-linejoin:round;stroke-miterlimit:4;stroke-opacity:1;stroke-dasharray:none;marker-end:url(#Arrow1Mend-6);display:inline"
         inkscape:connector-curvature="0" />
      <path
         d="m 545.25356,726.75894 171.81831,0 c 5.72728,0 9.54546,3.81819 9.54546,9.54546 l 0,38.18182 c 0,5.7273 -3.81818,9.5455 -9.54546,9.5455 l -171.81831,0 c -5.72728,0 -9.54546,-3.8182 -9.54546,-9.5455 l 0,-38.18182 c 0,-5.72727 3.81818,-9.54546 9.54546,-9.54546 z"
         id="rect5327-2-7"
         style="fill:#e8e8e8;fill-opacity:1;stroke:#383838;stroke-width:1.01467502;stroke-linecap:round;stroke-linejoin:round;stroke-miterlimit:4;stroke-opacity:1;stroke-dasharray:none;stroke-dashoffset:0;display:inline"
         inkscape:connector-curvature="0" />
      <text
         x="482.96478"
         y="666.02148"
         id="text6301"
         xml:space="preserve"
         style="font-size:20px;font-style:normal;font-variant:normal;font-weight:normal;font-stretch:normal;text-align:start;line-height:125%;letter-spacing:0px;word-spacing:0px;text-anchor:start;fill:#383838;fill-opacity:1;stroke:none;display:inline;font-family:Inconsolata LGC;-inkscape-font-specification:Inconsolata LGC"
         sodipodi:linespacing="125%"><tspan
           x="482.96478"
           y="666.02148"
           id="tspan6303">E1</tspan></text>
      <text
         x="95.614044"
         y="537.63824"
         id="text5473"
         xml:space="preserve"
         style="font-size:20px;font-style:normal;font-variant:normal;font-weight:normal;font-stretch:normal;text-align:start;line-height:125%;letter-spacing:0px;word-spacing:0px;text-anchor:start;fill:#383838;fill-opacity:1;stroke:none;display:inline;font-family:Inconsolata LGC;-inkscape-font-specification:Inconsolata LGC"
         sodipodi:linespacing="125%"><tspan
           x="95.614044"
           y="537.63824"
           id="tspan5475">W1:</tspan></text>
      <text
         x="629.79437"
         y="666.23254"
         id="text6297"
         xml:space="preserve"
         style="font-size:20px;font-style:normal;font-variant:normal;font-weight:normal;font-stretch:normal;text-align:center;line-height:125%;letter-spacing:0px;word-spacing:0px;text-anchor:middle;fill:#383838;fill-opacity:1;stroke:none;display:inline;font-family:Inconsolata LGC;-inkscape-font-specification:Inconsolata LGC"
         sodipodi:linespacing="125%"><tspan
           style="font-size:18px"
           x="629.79437"
           y="666.23254"
           id="tspan6299">initial-amount: 100</tspan></text>
      <path
         d="m 630.04456,724.73864 0,-34.36366"
         id="path4451-8-3-0"
         style="fill:none;stroke:#383838;stroke-width:1.48819005;stroke-linecap:round;stroke-linejoin:round;stroke-miterlimit:4;stroke-opacity:1;stroke-dasharray:none;marker-end:url(#Arrow1Mend-6);display:inline"
         inkscape:connector-curvature="0" />
      <text
         x="617.16272"
         y="762.69727"
         id="text6297-8"
         xml:space="preserve"
         style="font-size:20px;font-style:normal;font-variant:normal;font-weight:normal;font-stretch:normal;text-align:center;line-height:125%;letter-spacing:0px;word-spacing:0px;text-anchor:middle;fill:#383838;fill-opacity:1;stroke:none;display:inline;font-family:Inconsolata LGC;-inkscape-font-specification:Inconsolata LGC"
         sodipodi:linespacing="125%"><tspan
           x="617.16272"
           y="762.69727"
           id="tspan6299-8">balance: 50</tspan></text>
      <text
         sodipodi:linespacing="125%"
         id="text3471-3"
         y="894.93359"
         x="421.59647"
         style="font-size:40px;font-style:normal;font-weight:normal;line-height:125%;letter-spacing:0px;word-spacing:0px;fill:#000000;fill-opacity:1;stroke:none;font-family:Sans"
         xml:space="preserve"><tspan
           style="font-size:20px"
           y="894.93359"
           x="421.59647"
           id="tspan3473-6"
           sodipodi:role="line">parameters: amount</tspan><tspan
           style="font-size:20px"
           id="tspan3475-5"
           y="919.93359"
           x="421.59647"
           sodipodi:role="line">body: </tspan><tspan
           style="font-size:20px"
           id="tspan3479-6"
           y="944.93359"
           x="421.59647"
           sodipodi:role="line">(if (&gt;= balance amount)</tspan><tspan
           style="font-size:20px"
           id="tspan3481-4"
           y="969.93359"
           x="421.59647"
           sodipodi:role="line">    (begin (set! balance </tspan><tspan
           style="font-size:20px"
           id="tspan3483-8"
           y="994.93359"
           x="421.59647"
           sodipodi:role="line">                       (- balance amount))</tspan><tspan
           style="font-size:20px"
           id="tspan3485-4"
           y="1019.9336"
           x="421.59647"
           sodipodi:role="line">               balance)</tspan><tspan
           style="font-size:20px"
           id="tspan3487-5"
           y="1044.9336"
           x="421.59647"
           sodipodi:role="line">     &quot;Insufficient funds&quot;)</tspan><tspan
           style="font-size:20px"
           id="tspan3489-0"
           y="1069.9336"
           x="421.59647"
           sodipodi:role="line" /></text>
      <path
         d="m 512.95069,755.18507 18.92046,0"
         id="path4451-8-7"
         style="fill:none;stroke:#383838;stroke-width:1.48819005;stroke-linecap:round;stroke-linejoin:round;stroke-miterlimit:4;stroke-opacity:1;stroke-dasharray:none;marker-end:url(#Arrow1Mend-6);display:inline"
         inkscape:connector-curvature="0" />
      <text
         x="484.3143"
         y="762.276"
         id="text6301-2"
         xml:space="preserve"
         style="font-size:20px;font-style:normal;font-variant:normal;font-weight:normal;font-stretch:normal;text-align:start;line-height:125%;letter-spacing:0px;word-spacing:0px;text-anchor:start;fill:#383838;fill-opacity:1;stroke:none;display:inline;font-family:Inconsolata LGC;-inkscape-font-specification:Inconsolata LGC"
         sodipodi:linespacing="125%"><tspan
           x="484.3143"
           y="762.276"
           id="tspan6303-0">E2</tspan></text>
      <path
         d="m 862.86527,835.72375 89.55688,0 c 5.89774,0 9.71592,-3.8182 9.71592,-9.5455 l 0,-39.12669"
         id="path3795-0-7"
         style="fill:none;stroke:#383838;stroke-width:1.48819005;stroke-linecap:round;stroke-linejoin:round;stroke-miterlimit:4;stroke-opacity:1;stroke-dasharray:none;marker-end:url(#Arrow1Mend);display:inline"
         inkscape:connector-curvature="0" />
      <path
         d="m 142.10749,495.19818 417.54531,0 c 171.17419,0 281.99216,8.08221 281.99216,20.20555 l 0,299.04207"
         id="path3795-5-5-9"
         style="fill:none;stroke:#383838;stroke-width:1.48818982;stroke-linecap:round;stroke-linejoin:round;stroke-miterlimit:4;stroke-opacity:1;stroke-dasharray:none;marker-end:url(#Arrow1Mend);display:inline"
         inkscape:connector-curvature="0" />
      <path
         d="m 821.81979,835.82605 a 4.7727307,4.7727307 0 0 1 -9.54546,0 4.7727307,4.7727307 0 1 1 9.54546,0 z"
         id="path5407-2-5"
         style="fill:#383838;fill-opacity:1;stroke:#383838;stroke-width:0.67645007;stroke-linecap:round;stroke-linejoin:round;stroke-miterlimit:4;stroke-opacity:1;stroke-dasharray:none;stroke-dashoffset:0;display:inline"
         inkscape:connector-curvature="0" />
      <path
         d="m 866.58119,835.82605 a 4.7727307,4.7727307 0 0 1 -9.54546,0 4.7727307,4.7727307 0 1 1 9.54546,0 z"
         id="path5407-7-3-6"
         style="fill:#383838;fill-opacity:1;stroke:#383838;stroke-width:0.67645007;stroke-linecap:round;stroke-linejoin:round;stroke-miterlimit:4;stroke-opacity:1;stroke-dasharray:none;stroke-dashoffset:0;display:inline"
         inkscape:connector-curvature="0" />
      <path
         d="m 884.20618,835.82605 a 22.295475,22.295475 0 0 1 -44.59095,0 22.295475,22.295475 0 1 1 44.59095,0 z"
         id="path5435-9-5-6"
         style="fill:none;stroke:#383838;stroke-width:1.01467502;stroke-linecap:round;stroke-linejoin:round;stroke-miterlimit:4;stroke-opacity:1;stroke-dasharray:none;stroke-dashoffset:0;display:inline"
         inkscape:connector-curvature="0" />
      <path
         d="m 839.34253,835.82605 a 22.295475,22.295475 0 0 1 -44.59095,0 22.295475,22.295475 0 1 1 44.59095,0 z"
         id="path5435-9-6-6-3"
         style="fill:none;stroke:#383838;stroke-width:1.01467502;stroke-linecap:round;stroke-linejoin:round;stroke-miterlimit:4;stroke-opacity:1;stroke-dasharray:none;stroke-dashoffset:0;display:inline"
         inkscape:connector-curvature="0" />
      <path
         d="m 920.75531,632.01643 171.81829,0 c 5.7273,0 9.5455,3.81818 9.5455,9.54546 l 0,38.18184 c 0,5.72728 -3.8182,9.54547 -9.5455,9.54547 l -171.81829,0 c -5.72728,0 -9.54547,-3.81819 -9.54547,-9.54547 l 0,-38.18184 c 0,-5.72728 3.81819,-9.54546 9.54547,-9.54546 z"
         id="rect5327-2-0"
         style="fill:#e8e8e8;fill-opacity:1;stroke:#383838;stroke-width:1.01467502;stroke-linecap:round;stroke-linejoin:round;stroke-miterlimit:4;stroke-opacity:1;stroke-dasharray:none;stroke-dashoffset:0;display:inline"
         inkscape:connector-curvature="0" />
      <path
         d="m 888.4712,660.65281 18.92046,0"
         id="path4451-8-5"
         style="fill:none;stroke:#383838;stroke-width:1.48819005;stroke-linecap:round;stroke-linejoin:round;stroke-miterlimit:4;stroke-opacity:1;stroke-dasharray:none;marker-end:url(#Arrow1Mend-6);display:inline"
         inkscape:connector-curvature="0" />
      <path
         d="m 1006.6645,632.01643 0,-34.36367"
         id="path4451-8-3-7"
         style="fill:none;stroke:#383838;stroke-width:1.48819005;stroke-linecap:round;stroke-linejoin:round;stroke-miterlimit:4;stroke-opacity:1;stroke-dasharray:none;marker-end:url(#Arrow1Mend-6);display:inline"
         inkscape:connector-curvature="0" />
      <path
         d="m 922.1236,728.48119 171.8183,0 c 5.7273,0 9.5455,3.81819 9.5455,9.54546 l 0,38.18182 c 0,5.7273 -3.8182,9.5455 -9.5455,9.5455 l -171.8183,0 c -5.72728,0 -9.54546,-3.8182 -9.54546,-9.5455 l 0,-38.18182 c 0,-5.72727 3.81818,-9.54546 9.54546,-9.54546 z"
         id="rect5327-2-7-8"
         style="fill:#e8e8e8;fill-opacity:1;stroke:#383838;stroke-width:1.01467502;stroke-linecap:round;stroke-linejoin:round;stroke-miterlimit:4;stroke-opacity:1;stroke-dasharray:none;stroke-dashoffset:0;display:inline"
         inkscape:connector-curvature="0" />
      <text
         x="859.83484"
         y="667.74377"
         id="text6301-7"
         xml:space="preserve"
         style="font-size:20px;font-style:normal;font-variant:normal;font-weight:normal;font-stretch:normal;text-align:start;line-height:125%;letter-spacing:0px;word-spacing:0px;text-anchor:start;fill:#383838;fill-opacity:1;stroke:none;display:inline;font-family:Inconsolata LGC;-inkscape-font-specification:Inconsolata LGC"
         sodipodi:linespacing="125%"><tspan
           x="859.83484"
           y="667.74377"
           id="tspan6303-07">E3</tspan></text>
      <text
         x="93.912643"
         y="500.78909"
         id="text5473-5"
         xml:space="preserve"
         style="font-size:20px;font-style:normal;font-variant:normal;font-weight:normal;font-stretch:normal;text-align:start;line-height:125%;letter-spacing:0px;word-spacing:0px;text-anchor:start;fill:#383838;fill-opacity:1;stroke:none;display:inline;font-family:Inconsolata LGC;-inkscape-font-specification:Inconsolata LGC"
         sodipodi:linespacing="125%"><tspan
           x="93.912643"
           y="500.78909"
           id="tspan5475-3">W2:</tspan></text>
      <text
         x="1006.6644"
         y="667.95483"
         id="text6297-7"
         xml:space="preserve"
         style="font-size:20px;font-style:normal;font-variant:normal;font-weight:normal;font-stretch:normal;text-align:center;line-height:125%;letter-spacing:0px;word-spacing:0px;text-anchor:middle;fill:#383838;fill-opacity:1;stroke:none;display:inline;font-family:Inconsolata LGC;-inkscape-font-specification:Inconsolata LGC"
         sodipodi:linespacing="125%"><tspan
           style="font-size:18px"
           x="1006.6644"
           y="667.95483"
           id="tspan6299-83">initial-amount: 100</tspan></text>
      <path
         d="m 1006.9146,726.46089 0,-34.36366"
         id="path4451-8-3-0-0"
         style="fill:none;stroke:#383838;stroke-width:1.48819005;stroke-linecap:round;stroke-linejoin:round;stroke-miterlimit:4;stroke-opacity:1;stroke-dasharray:none;marker-end:url(#Arrow1Mend-6);display:inline"
         inkscape:connector-curvature="0" />
      <text
         x="994.03278"
         y="764.41949"
         id="text6297-8-0"
         xml:space="preserve"
         style="font-size:20px;font-style:normal;font-variant:normal;font-weight:normal;font-stretch:normal;text-align:center;line-height:125%;letter-spacing:0px;word-spacing:0px;text-anchor:middle;fill:#383838;fill-opacity:1;stroke:none;display:inline;font-family:Inconsolata LGC;-inkscape-font-specification:Inconsolata LGC"
         sodipodi:linespacing="125%"><tspan
           x="994.03278"
           y="764.41949"
           id="tspan6299-8-1">balance: 100</tspan></text>
      <path
         d="m 889.82073,756.90732 18.92046,0"
         id="path4451-8-7-8"
         style="fill:none;stroke:#383838;stroke-width:1.48819005;stroke-linecap:round;stroke-linejoin:round;stroke-miterlimit:4;stroke-opacity:1;stroke-dasharray:none;marker-end:url(#Arrow1Mend-6);display:inline"
         inkscape:connector-curvature="0" />
      <text
         x="861.18433"
         y="763.99823"
         id="text6301-2-7"
         xml:space="preserve"
         style="font-size:20px;font-style:normal;font-variant:normal;font-weight:normal;font-stretch:normal;text-align:start;line-height:125%;letter-spacing:0px;word-spacing:0px;text-anchor:start;fill:#383838;fill-opacity:1;stroke:none;display:inline;font-family:Inconsolata LGC;-inkscape-font-specification:Inconsolata LGC"
         sodipodi:linespacing="125%"><tspan
           x="861.18433"
           y="763.99823"
           id="tspan6303-0-7">E4</tspan></text>
      <path
         d="m 814.71608,837.31602 -196.66316,0 c -12.95119,0 -21.33575,2.85552 -21.33575,7.13881 l 0,29.26174"
         id="path3795-0-7-6"
         style="fill:none;stroke:#383838;stroke-width:1.48819005;stroke-linecap:round;stroke-linejoin:round;stroke-miterlimit:4;stroke-opacity:1;stroke-dasharray:none;marker-end:url(#Arrow1Mend);display:inline"
         inkscape:connector-curvature="0" />
    </g>
  </g>
</svg>
